<?xml version="1.0" encoding="utf-8"?>
<!DOCTYPE svg PUBLIC "-//W3C//DTD SVG 1.1//EN" "http://www.w3.org/Graphics/SVG/1.1/DTD/svg11.dtd">
<svg version="1.1" id="Ebene_1" xmlns="http://www.w3.org/2000/svg" xmlns:xlink="http://www.w3.org/1999/xlink" x="0px" y="0px"
	 width="325px" height="570px" viewBox="0 0 325 570" enable-background="new 0 0 325 570" xml:space="preserve">
<rect id="toolbar-l" x="0" opacity="0.05" enable-background="new    " width="325" height="17"/>
<rect id="logo" x="0" y="22" opacity="0.05" enable-background="new    " width="77.959" height="17"/>
<rect id="headerbar" x="84" y="22" opacity="0.05" enable-background="new    " width="241" height="17"/>
<g id="top-a" opacity="0.1">
	<rect x="82.626" y="44" fill="#777777" width="160.429" height="22"/>
</g>
<g id="top-b" opacity="0.1">
	<rect x="82.626" y="71" fill="#777777" width="160.429" height="22"/>
</g>
<rect id="sidebar-a__x28_right_x29_" x="289" y="44.205" opacity="0.2" fill="#444444" enable-background="new    " width="36" height="222"/>
<rect id="sidebar-b__x28_right_x29_" x="247.561" y="44.205" opacity="0.2" fill="#444444" enable-background="new    " width="36" height="222"/>
<g id="inner_top" opacity="0.1">
	<rect x="82.626" y="98" fill="#777777" width="160.429" height="20"/>
</g>
<rect id="content" x="82.626" y="123" opacity="0.05" enable-background="new    " width="160.429" height="42"/>
<g id="inner_bottom" opacity="0.1">
	<rect x="82.626" y="170" fill="#777777" width="160.429" height="20"/>
</g>
<g id="bottom-a" opacity="0.1">
	<rect x="82.626" y="195" fill="#777777" width="160.429" height="22"/>
</g>
<g id="bottom-b" opacity="0.1">
	<rect x="82.626" y="222" fill="#777777" width="160.429" height="22"/>
</g>
<rect id="footer" x="82.626" y="249" opacity="0.05" enable-background="new    " width="160.429" height="17"/>
<g>
	<path fill="#444444" d="M7.868,12H7.121V6.239H5.086V5.575h4.815v0.664H7.866L7.868,12L7.868,12z"/>
	<path fill="#444444" d="M16.445,8.779c0,1.028-0.26,1.837-0.779,2.426c-0.521,0.589-1.243,0.883-2.168,0.883
		c-0.946,0-1.677-0.289-2.191-0.868c-0.514-0.578-0.771-1.395-0.771-2.45c0-1.046,0.258-1.857,0.772-2.432
		c0.516-0.576,1.248-0.864,2.197-0.864c0.923,0,1.644,0.293,2.162,0.879C16.185,6.939,16.445,7.748,16.445,8.779z M11.326,8.779
		c0,0.87,0.185,1.53,0.556,1.98c0.37,0.45,0.909,0.674,1.615,0.674c0.712,0,1.25-0.224,1.612-0.672
		c0.363-0.448,0.545-1.109,0.545-1.982c0-0.864-0.181-1.52-0.543-1.966c-0.361-0.446-0.896-0.67-1.605-0.67
		c-0.712,0-1.253,0.225-1.624,0.674C11.51,7.267,11.326,7.92,11.326,8.779z"/>
	<path fill="#444444" d="M23.455,8.779c0,1.028-0.261,1.837-0.78,2.426c-0.521,0.589-1.243,0.883-2.168,0.883
		c-0.946,0-1.676-0.289-2.191-0.868c-0.514-0.578-0.771-1.395-0.771-2.45c0-1.046,0.258-1.857,0.772-2.432
		c0.517-0.576,1.248-0.864,2.197-0.864c0.923,0,1.644,0.293,2.162,0.879C23.194,6.939,23.455,7.748,23.455,8.779z M18.336,8.779
		c0,0.87,0.185,1.53,0.556,1.98c0.37,0.45,0.909,0.674,1.615,0.674c0.712,0,1.25-0.224,1.613-0.672
		c0.362-0.448,0.545-1.109,0.545-1.982c0-0.864-0.182-1.52-0.543-1.966c-0.362-0.446-0.897-0.67-1.606-0.67
		c-0.712,0-1.253,0.225-1.624,0.674C18.52,7.267,18.336,7.92,18.336,8.779z"/>
	<path fill="#444444" d="M24.887,12V5.575h0.747v5.748h2.834V12H24.887z"/>
	<path fill="#444444" d="M29.558,5.575h1.815c0.853,0,1.469,0.127,1.85,0.382s0.571,0.658,0.571,1.208
		c0,0.381-0.106,0.695-0.319,0.942c-0.212,0.248-0.521,0.408-0.929,0.481v0.044c0.976,0.167,1.463,0.68,1.463,1.538
		c0,0.574-0.194,1.022-0.582,1.345C33.04,11.839,32.498,12,31.8,12h-2.241V5.575z M30.305,8.326h1.23
		c0.526,0,0.906-0.083,1.138-0.248c0.23-0.165,0.347-0.445,0.347-0.837c0-0.36-0.129-0.62-0.387-0.78s-0.668-0.24-1.23-0.24h-1.098
		V8.326z M30.305,8.959v2.404h1.34c0.52,0,0.909-0.1,1.171-0.301c0.263-0.2,0.395-0.515,0.395-0.942
		c0-0.398-0.134-0.691-0.402-0.879c-0.268-0.188-0.676-0.281-1.224-0.281L30.305,8.959L30.305,8.959z"/>
	<path fill="#444444" d="M39.428,12l-0.8-2.043h-2.575L35.262,12h-0.756l2.54-6.451h0.628L40.203,12H39.428z M38.396,9.284
		l-0.747-1.991c-0.097-0.252-0.195-0.561-0.299-0.927c-0.063,0.281-0.157,0.59-0.277,0.927l-0.756,1.991H38.396z"/>
	<path fill="#444444" d="M41.833,9.328V12h-0.747V5.575h1.762c0.788,0,1.37,0.151,1.747,0.453c0.376,0.302,0.563,0.756,0.563,1.362
		c0,0.85-0.431,1.424-1.292,1.723L45.611,12h-0.883l-1.556-2.672H41.833z M41.833,8.687h1.023c0.527,0,0.914-0.104,1.16-0.314
		c0.246-0.209,0.369-0.523,0.369-0.942c0-0.425-0.125-0.731-0.376-0.918c-0.25-0.188-0.652-0.281-1.206-0.281h-0.971V8.687z"/>
	<path fill="#444444" d="M46.135,9.921V9.253h2.158v0.668H46.135z"/>
	<path fill="#444444" d="M49.545,12V5.575h0.747v5.748h2.834V12H49.545z"/>
</g>
<g enable-background="new    ">
	<path fill="#444444" d="M272.795,11.912h-0.747V6.15h-2.035V5.487h4.816V6.15h-2.035L272.795,11.912L272.795,11.912z"/>
	<path fill="#444444" d="M281.374,8.691c0,1.027-0.261,1.836-0.78,2.426c-0.52,0.588-1.243,0.883-2.168,0.883
		c-0.946,0-1.676-0.289-2.191-0.868c-0.514-0.578-0.771-1.396-0.771-2.45c0-1.045,0.258-1.856,0.772-2.432
		c0.517-0.576,1.248-0.863,2.197-0.863c0.923,0,1.645,0.293,2.162,0.879S281.374,7.66,281.374,8.691z M276.254,8.691
		c0,0.869,0.185,1.529,0.556,1.979c0.37,0.449,0.909,0.675,1.615,0.675c0.712,0,1.25-0.225,1.613-0.673
		c0.362-0.448,0.545-1.108,0.545-1.981c0-0.864-0.182-1.521-0.543-1.967c-0.362-0.447-0.897-0.67-1.606-0.67
		c-0.712,0-1.253,0.225-1.624,0.674C276.439,7.179,276.254,7.833,276.254,8.691z"/>
	<path fill="#444444" d="M288.383,8.691c0,1.027-0.26,1.836-0.78,2.426c-0.52,0.588-1.243,0.883-2.168,0.883
		c-0.946,0-1.676-0.289-2.19-0.868c-0.515-0.578-0.771-1.396-0.771-2.45c0-1.045,0.258-1.856,0.773-2.432s1.248-0.863,2.196-0.863
		c0.924,0,1.645,0.293,2.162,0.879C288.123,6.852,288.383,7.66,288.383,8.691z M283.263,8.691c0,0.869,0.185,1.529,0.556,1.979
		c0.37,0.449,0.909,0.675,1.615,0.675c0.712,0,1.25-0.225,1.613-0.673c0.363-0.448,0.545-1.108,0.545-1.981
		c0-0.864-0.181-1.521-0.543-1.967c-0.362-0.447-0.897-0.67-1.606-0.67c-0.712,0-1.253,0.225-1.624,0.674
		C283.448,7.179,283.263,7.833,283.263,8.691z"/>
	<path fill="#444444" d="M289.815,11.912V5.487h0.747v5.748h2.834v0.677H289.815z"/>
	<path fill="#444444" d="M294.487,5.487h1.815c0.853,0,1.469,0.128,1.851,0.382c0.382,0.256,0.57,0.658,0.57,1.209
		c0,0.381-0.104,0.695-0.318,0.942c-0.213,0.248-0.521,0.408-0.929,0.481v0.044c0.977,0.167,1.463,0.68,1.463,1.538
		c0,0.574-0.193,1.022-0.582,1.345c-0.389,0.322-0.931,0.483-1.628,0.483h-2.241L294.487,5.487L294.487,5.487z M295.234,8.238h1.23
		c0.527,0,0.907-0.083,1.138-0.248c0.231-0.166,0.348-0.444,0.348-0.838c0-0.359-0.13-0.62-0.388-0.779
		c-0.258-0.16-0.668-0.24-1.229-0.24h-1.1L295.234,8.238L295.234,8.238z M295.234,8.871v2.404h1.341
		c0.519,0,0.908-0.101,1.171-0.302c0.262-0.2,0.394-0.515,0.394-0.942c0-0.398-0.134-0.691-0.402-0.879
		c-0.268-0.188-0.676-0.281-1.224-0.281H295.234z"/>
	<path fill="#444444" d="M304.357,11.912l-0.801-2.043h-2.574l-0.791,2.043h-0.756l2.539-6.451h0.629l2.527,6.451H304.357z
		 M303.324,9.196l-0.747-1.991c-0.098-0.251-0.196-0.561-0.3-0.927c-0.063,0.281-0.156,0.591-0.275,0.927l-0.756,1.991H303.324z"/>
	<path fill="#444444" d="M306.761,9.24v2.672h-0.747V5.487h1.762c0.789,0,1.371,0.151,1.748,0.452
		c0.375,0.303,0.564,0.756,0.564,1.363c0,0.85-0.433,1.424-1.293,1.723l1.745,2.887h-0.885l-1.555-2.672H306.761z M306.761,8.599
		h1.024c0.526,0,0.914-0.104,1.159-0.314c0.246-0.209,0.369-0.523,0.369-0.942c0-0.425-0.125-0.73-0.377-0.918
		c-0.25-0.188-0.651-0.281-1.205-0.281h-0.972L306.761,8.599L306.761,8.599z"/>
	<path fill="#444444" d="M311.062,9.834V9.166h2.158v0.668H311.062z"/>
	<path fill="#444444" d="M315.221,9.24v2.672h-0.748V5.487h1.763c0.788,0,1.37,0.151,1.747,0.452
		c0.376,0.303,0.564,0.756,0.564,1.363c0,0.85-0.431,1.424-1.292,1.723L319,11.912h-0.884L316.56,9.24H315.221z M315.221,8.599
		h1.023c0.526,0,0.914-0.104,1.159-0.314c0.246-0.209,0.369-0.523,0.369-0.942c0-0.425-0.125-0.73-0.376-0.918
		c-0.25-0.188-0.651-0.281-1.206-0.281h-0.971L315.221,8.599L315.221,8.599z"/>
</g>
<g>
	<path fill="#444444" d="M6.074,34v-6.425h0.747v5.748h2.834V34H6.074z"/>
	<path fill="#444444" d="M16.323,30.779c0,1.028-0.26,1.837-0.779,2.426c-0.521,0.589-1.243,0.883-2.168,0.883
		c-0.946,0-1.677-0.289-2.191-0.868c-0.514-0.578-0.771-1.395-0.771-2.45c0-1.046,0.259-1.857,0.773-2.432
		c0.516-0.576,1.248-0.864,2.197-0.864c0.923,0,1.644,0.293,2.162,0.879C16.063,28.939,16.323,29.748,16.323,30.779z M11.203,30.779
		c0,0.87,0.186,1.53,0.557,1.98c0.37,0.45,0.909,0.674,1.615,0.674c0.712,0,1.25-0.224,1.612-0.672
		c0.363-0.448,0.545-1.109,0.545-1.982c0-0.864-0.181-1.52-0.543-1.966c-0.361-0.446-0.896-0.67-1.605-0.67
		c-0.712,0-1.253,0.225-1.624,0.674C11.389,29.267,11.203,29.92,11.203,30.779z"/>
	<path fill="#444444" d="M20.581,30.634h2.185v3.125c-0.34,0.108-0.687,0.19-1.037,0.246c-0.351,0.056-0.759,0.083-1.222,0.083
		c-0.974,0-1.73-0.289-2.272-0.868c-0.542-0.578-0.813-1.389-0.813-2.432c0-0.668,0.134-1.253,0.401-1.755
		c0.27-0.502,0.654-0.886,1.158-1.151c0.504-0.265,1.094-0.398,1.771-0.398c0.686,0,1.323,0.126,1.916,0.378l-0.29,0.659
		c-0.58-0.246-1.139-0.369-1.675-0.369c-0.781,0-1.393,0.233-1.833,0.699c-0.439,0.466-0.658,1.112-0.658,1.938
		c0,0.867,0.211,1.525,0.635,1.973c0.423,0.448,1.045,0.672,1.865,0.672c0.444,0,0.88-0.051,1.305-0.154v-1.979H20.58L20.581,30.634
		L20.581,30.634z"/>
	<path fill="#444444" d="M29.885,30.779c0,1.028-0.26,1.837-0.78,2.426c-0.52,0.589-1.243,0.883-2.168,0.883
		c-0.946,0-1.676-0.289-2.191-0.868c-0.514-0.578-0.771-1.395-0.771-2.45c0-1.046,0.258-1.857,0.772-2.432
		c0.517-0.576,1.248-0.864,2.197-0.864c0.923,0,1.645,0.293,2.162,0.879S29.885,29.748,29.885,30.779z M24.765,30.779
		c0,0.87,0.185,1.53,0.556,1.98c0.37,0.45,0.909,0.674,1.615,0.674c0.712,0,1.25-0.224,1.613-0.672
		c0.362-0.448,0.545-1.109,0.545-1.982c0-0.864-0.182-1.52-0.543-1.966c-0.362-0.446-0.897-0.67-1.606-0.67
		c-0.712,0-1.253,0.225-1.624,0.674C24.949,29.267,24.765,29.92,24.765,30.779z"/>
</g>
<g>
	<path fill="#444444" d="M93.805,33.669l-2.18-5.695h-0.035c0.041,0.451,0.062,0.987,0.062,1.608v4.087h-0.689v-6.425h1.125
		l2.035,5.3h0.034l2.053-5.3h1.115v6.425h-0.746v-4.14c0-0.475,0.021-0.99,0.062-1.547h-0.035l-2.198,5.687H93.805z"/>
	<path fill="#444444" d="M102.67,33.669h-3.582v-6.425h3.582v0.664h-2.834v2.07h2.663v0.659h-2.663v2.364h2.834V33.669z"/>
	<path fill="#444444" d="M109.111,33.669h-0.853l-3.511-5.392h-0.035c0.047,0.633,0.069,1.213,0.069,1.74v3.652h-0.689v-6.425h0.844
		l3.502,5.37h0.035c-0.006-0.079-0.019-0.333-0.04-0.763c-0.021-0.429-0.028-0.736-0.021-0.92v-3.687h0.698L109.111,33.669
		L109.111,33.669z"/>
	<path fill="#444444" d="M115.73,27.245v4.157c0,0.732-0.221,1.308-0.664,1.727c-0.442,0.419-1.05,0.628-1.824,0.628
		c-0.773,0-1.371-0.211-1.795-0.633c-0.423-0.422-0.635-1.002-0.635-1.74v-4.14h0.747v4.192c0,0.536,0.146,0.948,0.439,1.235
		s0.724,0.431,1.292,0.431c0.542,0,0.959-0.144,1.252-0.433c0.293-0.288,0.438-0.702,0.438-1.241v-4.184L115.73,27.245
		L115.73,27.245z"/>
</g>
<g>
	<path fill="#444444" d="M291.287,32.292c0,0.565-0.205,1.006-0.615,1.323c-0.41,0.317-0.967,0.475-1.67,0.475
		c-0.763,0-1.349-0.098-1.759-0.294v-0.721c0.265,0.111,0.552,0.199,0.861,0.264c0.311,0.065,0.618,0.097,0.923,0.097
		c0.498,0,0.873-0.094,1.125-0.284c0.252-0.188,0.378-0.452,0.378-0.789c0-0.223-0.045-0.405-0.134-0.547
		c-0.09-0.142-0.239-0.273-0.448-0.393c-0.21-0.12-0.527-0.256-0.956-0.409c-0.598-0.214-1.024-0.467-1.28-0.76
		s-0.384-0.675-0.384-1.147c0-0.495,0.186-0.889,0.558-1.182s0.864-0.439,1.477-0.439c0.64,0,1.227,0.117,1.763,0.352l-0.233,0.65
		c-0.53-0.223-1.046-0.334-1.547-0.334c-0.396,0-0.705,0.085-0.927,0.255c-0.223,0.17-0.334,0.406-0.334,0.708
		c0,0.223,0.041,0.405,0.123,0.547c0.082,0.143,0.22,0.272,0.416,0.392c0.193,0.118,0.492,0.25,0.894,0.393
		c0.674,0.24,1.137,0.498,1.391,0.773C291.159,31.495,291.287,31.852,291.287,32.292z"/>
	<path fill="#444444" d="M296.183,34.001h-3.582v-6.425h3.582v0.664h-2.834v2.07h2.663v0.659h-2.663v2.364h2.834V34.001z"/>
	<path fill="#444444" d="M301.645,34.001l-0.8-2.043h-2.575l-0.791,2.043h-0.756l2.54-6.451h0.628l2.528,6.451H301.645z
		 M300.612,31.285l-0.747-1.991c-0.097-0.252-0.195-0.561-0.299-0.927c-0.063,0.281-0.157,0.59-0.276,0.927l-0.757,1.991H300.612z"
		/>
	<path fill="#444444" d="M304.049,31.329v2.672h-0.747v-6.425h1.762c0.788,0,1.37,0.151,1.747,0.453
		c0.376,0.302,0.564,0.756,0.564,1.362c0,0.85-0.432,1.424-1.292,1.723l1.745,2.887h-0.884l-1.556-2.672H304.049z M304.049,30.688
		h1.023c0.527,0,0.914-0.104,1.16-0.314c0.246-0.209,0.369-0.523,0.369-0.942c0-0.425-0.125-0.731-0.376-0.918
		c-0.25-0.188-0.652-0.281-1.206-0.281h-0.971V30.688L304.049,30.688z"/>
	<path fill="#444444" d="M311.615,28.152c-0.706,0-1.264,0.235-1.672,0.706c-0.407,0.47-0.612,1.114-0.612,1.931
		c0,0.841,0.196,1.491,0.591,1.949c0.394,0.459,0.956,0.688,1.685,0.688c0.448,0,0.959-0.081,1.535-0.242v0.655
		c-0.445,0.167-0.996,0.25-1.647,0.25c-0.946,0-1.677-0.287-2.191-0.861c-0.514-0.574-0.771-1.39-0.771-2.448
		c0-0.662,0.124-1.242,0.372-1.74c0.247-0.498,0.604-0.882,1.073-1.151c0.467-0.27,1.016-0.404,1.649-0.404
		c0.674,0,1.263,0.123,1.767,0.369l-0.315,0.642C312.589,28.266,312.103,28.152,311.615,28.152z"/>
	<path fill="#444444" d="M319.421,34.001h-0.747v-3.023h-3.384v3.023h-0.747v-6.425h0.747v2.733h3.384v-2.733h0.747V34.001z"/>
</g>
<g>
	<path fill="#444444" d="M152.662,58h-0.746v-5.761h-2.035v-0.664h4.815v0.664h-2.035L152.662,58L152.662,58z"/>
	<path fill="#444444" d="M161.24,54.779c0,1.028-0.26,1.837-0.779,2.426c-0.521,0.589-1.243,0.883-2.168,0.883
		c-0.946,0-1.677-0.289-2.191-0.868c-0.514-0.578-0.771-1.395-0.771-2.45c0-1.046,0.259-1.857,0.773-2.432
		c0.516-0.576,1.248-0.864,2.197-0.864c0.923,0,1.644,0.293,2.162,0.879C160.981,52.939,161.24,53.748,161.24,54.779z
		 M156.12,54.779c0,0.87,0.186,1.53,0.557,1.98c0.37,0.45,0.909,0.674,1.615,0.674c0.712,0,1.25-0.224,1.612-0.672
		c0.363-0.448,0.545-1.109,0.545-1.982c0-0.864-0.181-1.52-0.543-1.966c-0.361-0.446-0.896-0.67-1.605-0.67
		c-0.712,0-1.253,0.225-1.624,0.674C156.306,53.267,156.12,53.92,156.12,54.779z"/>
	<path fill="#444444" d="M166.746,53.447c0,0.65-0.222,1.151-0.666,1.501c-0.442,0.35-1.078,0.525-1.904,0.525h-0.756V58h-0.747
		v-6.425h1.666C165.945,51.575,166.746,52.199,166.746,53.447z M163.421,54.832h0.672c0.662,0,1.141-0.107,1.437-0.321
		c0.296-0.214,0.444-0.557,0.444-1.028c0-0.425-0.139-0.741-0.417-0.949s-0.712-0.312-1.301-0.312h-0.835V54.832L163.421,54.832z"/>
	<path fill="#444444" d="M167.577,55.921v-0.668h2.158v0.668H167.577z"/>
	<path fill="#444444" d="M175.027,58l-0.8-2.043h-2.575L170.861,58h-0.756l2.54-6.451h0.628L175.8,58H175.027z M173.993,55.284
		l-0.747-1.991c-0.097-0.252-0.195-0.561-0.299-0.927c-0.063,0.281-0.156,0.59-0.276,0.927l-0.756,1.991H173.993z"/>
</g>
<g>
	<path fill="#444444" d="M152.844,86h-0.747v-5.761h-2.035v-0.664h4.816v0.664h-2.035L152.844,86L152.844,86z"/>
	<path fill="#444444" d="M161.423,82.779c0,1.028-0.261,1.837-0.78,2.426c-0.521,0.589-1.243,0.883-2.168,0.883
		c-0.946,0-1.676-0.289-2.191-0.868c-0.514-0.578-0.771-1.395-0.771-2.45c0-1.046,0.258-1.857,0.772-2.432
		c0.517-0.576,1.248-0.864,2.197-0.864c0.923,0,1.645,0.293,2.162,0.879S161.423,81.748,161.423,82.779z M156.302,82.779
		c0,0.87,0.185,1.53,0.556,1.98c0.37,0.45,0.909,0.674,1.615,0.674c0.712,0,1.25-0.224,1.613-0.672
		c0.362-0.448,0.545-1.109,0.545-1.982c0-0.864-0.182-1.52-0.543-1.966c-0.362-0.446-0.897-0.67-1.606-0.67
		c-0.712,0-1.253,0.225-1.624,0.674C156.487,81.267,156.302,81.92,156.302,82.779z"/>
	<path fill="#444444" d="M166.928,81.447c0,0.65-0.222,1.151-0.666,1.501c-0.443,0.35-1.079,0.525-1.905,0.525h-0.756V86h-0.747
		v-6.425h1.666C166.126,79.575,166.928,80.199,166.928,81.447z M163.601,82.832h0.672c0.662,0,1.142-0.107,1.438-0.321
		c0.296-0.214,0.443-0.557,0.443-1.028c0-0.425-0.139-0.741-0.417-0.949c-0.277-0.208-0.712-0.312-1.301-0.312h-0.835V82.832
		L163.601,82.832z"/>
	<path fill="#444444" d="M167.759,83.921v-0.668h2.158v0.668H167.759z"/>
	<path fill="#444444" d="M171.17,79.575h1.814c0.854,0,1.469,0.127,1.851,0.382c0.381,0.255,0.57,0.658,0.57,1.208
		c0,0.381-0.105,0.695-0.318,0.942c-0.212,0.248-0.522,0.408-0.93,0.481v0.044c0.977,0.167,1.463,0.68,1.463,1.538
		c0,0.574-0.193,1.022-0.582,1.345c-0.389,0.322-0.931,0.483-1.628,0.483h-2.24V79.575z M171.917,82.326h1.229
		c0.527,0,0.907-0.083,1.138-0.248c0.231-0.165,0.348-0.445,0.348-0.837c0-0.36-0.129-0.62-0.388-0.78
		c-0.258-0.16-0.668-0.24-1.229-0.24h-1.099L171.917,82.326L171.917,82.326z M171.917,82.959v2.404h1.34
		c0.519,0,0.909-0.1,1.171-0.301c0.262-0.2,0.394-0.515,0.394-0.942c0-0.398-0.134-0.691-0.401-0.879
		c-0.269-0.188-0.677-0.281-1.225-0.281L171.917,82.959L171.917,82.959z"/>
</g>
<g>
	<path fill="#444444" d="M145.632,141.563c-0.706,0-1.264,0.231-1.672,0.707c-0.408,0.469-0.613,1.109-0.613,1.931
		c0,0.841,0.197,1.491,0.591,1.948c0.395,0.459,0.956,0.688,1.686,0.688c0.447,0,0.959-0.081,1.533-0.24v0.653
		c-0.444,0.167-0.995,0.25-1.647,0.25c-0.946,0-1.676-0.287-2.191-0.86c-0.514-0.574-0.771-1.391-0.771-2.447
		c0-0.662,0.124-1.239,0.372-1.737c0.247-0.498,0.604-0.886,1.071-1.149c0.468-0.271,1.018-0.402,1.65-0.402
		c0.674,0,1.263,0.123,1.767,0.369l-0.315,0.643C146.604,141.678,146.117,141.563,145.632,141.563z"/>
	<path fill="#444444" d="M154.135,144.191c0,1.023-0.26,1.836-0.78,2.426c-0.52,0.589-1.243,0.883-2.168,0.883
		c-0.946,0-1.676-0.289-2.19-0.867s-0.771-1.396-0.771-2.451c0-1.045,0.258-1.854,0.773-2.432c0.516-0.576,1.248-0.863,2.196-0.863
		c0.923,0,1.645,0.293,2.162,0.879C153.875,142.352,154.135,143.16,154.135,144.191z M149.015,144.191
		c0,0.869,0.185,1.529,0.556,1.979c0.37,0.45,0.909,0.676,1.615,0.676c0.712,0,1.25-0.226,1.613-0.674
		c0.363-0.447,0.545-1.107,0.545-1.98c0-0.861-0.181-1.521-0.543-1.967c-0.362-0.445-0.897-0.67-1.606-0.67
		c-0.712,0-1.253,0.228-1.624,0.674C149.2,142.68,149.015,143.332,149.015,144.191z"/>
	<path fill="#444444" d="M160.587,147.412h-0.854l-3.511-5.393h-0.035c0.047,0.633,0.07,1.213,0.07,1.736v3.652h-0.69v-6.428h0.844
		l3.503,5.369h0.034c-0.006-0.078-0.019-0.334-0.04-0.764c-0.021-0.429-0.027-0.736-0.021-0.92v-3.688h0.699L160.587,147.412
		L160.587,147.412z"/>
	<path fill="#444444" d="M164.331,147.412h-0.747v-5.762h-2.035v-0.664h4.815v0.664h-2.034L164.331,147.412L164.331,147.412z"/>
	<path fill="#444444" d="M170.914,147.412h-3.582v-6.426h3.582v0.664h-2.834v2.07h2.662v0.655h-2.662v2.364h2.834V147.412z"/>
	<path fill="#444444" d="M177.355,147.412h-0.853l-3.512-5.393h-0.034c0.047,0.633,0.069,1.213,0.069,1.736v3.652h-0.689v-6.428
		h0.844l3.502,5.369h0.035c-0.006-0.078-0.02-0.334-0.04-0.764c-0.021-0.429-0.028-0.736-0.022-0.92v-3.688h0.699L177.355,147.412
		L177.355,147.412z"/>
	<path fill="#444444" d="M181.099,147.412h-0.747v-5.762h-2.035v-0.664h4.817v0.664h-2.035V147.412z"/>
</g>
<g>
	<path fill="#444444" d="M140.201,230.575h1.814c0.854,0,1.47,0.128,1.851,0.382c0.381,0.256,0.57,0.658,0.57,1.209
		c0,0.381-0.105,0.695-0.318,0.941c-0.212,0.248-0.522,0.408-0.93,0.479v0.044c0.977,0.167,1.464,0.683,1.464,1.538
		c0,0.574-0.194,1.021-0.582,1.348c-0.39,0.319-0.932,0.48-1.628,0.48h-2.241V230.575z M140.948,233.326h1.229
		c0.527,0,0.907-0.082,1.138-0.248c0.231-0.166,0.348-0.445,0.348-0.838c0-0.359-0.129-0.619-0.387-0.779
		c-0.259-0.16-0.669-0.24-1.23-0.24h-1.099L140.948,233.326L140.948,233.326z M140.948,233.959v2.404h1.34
		c0.519,0,0.909-0.102,1.171-0.303c0.262-0.199,0.394-0.519,0.394-0.941c0-0.398-0.134-0.691-0.401-0.879
		c-0.269-0.188-0.677-0.281-1.225-0.281H140.948L140.948,233.959z"/>
	<path fill="#444444" d="M151.609,233.779c0,1.027-0.261,1.836-0.78,2.426c-0.521,0.588-1.243,0.883-2.168,0.883
		c-0.946,0-1.676-0.289-2.191-0.868c-0.514-0.577-0.771-1.396-0.771-2.45c0-1.045,0.258-1.854,0.772-2.432
		c0.517-0.576,1.248-0.863,2.197-0.863c0.923,0,1.644,0.293,2.162,0.879C151.348,231.939,151.609,232.748,151.609,233.779z
		 M146.489,233.779c0,0.869,0.185,1.529,0.556,1.979c0.37,0.45,0.909,0.676,1.615,0.676c0.712,0,1.25-0.226,1.612-0.674
		c0.363-0.447,0.546-1.107,0.546-1.98c0-0.861-0.182-1.521-0.544-1.967c-0.361-0.443-0.896-0.67-1.605-0.67
		c-0.712,0-1.253,0.229-1.624,0.674C146.674,232.268,146.489,232.92,146.489,233.779z"/>
	<path fill="#444444" d="M155.018,237h-0.747v-5.762h-2.034v-0.663h4.815v0.663h-2.035L155.018,237L155.018,237z"/>
	<path fill="#444444" d="M159.998,237h-0.747v-5.762h-2.035v-0.663h4.816v0.663h-2.035L159.998,237L159.998,237z"/>
	<path fill="#444444" d="M168.576,233.779c0,1.027-0.261,1.836-0.78,2.426c-0.52,0.588-1.243,0.883-2.168,0.883
		c-0.946,0-1.676-0.289-2.191-0.868c-0.514-0.577-0.771-1.396-0.771-2.45c0-1.045,0.258-1.854,0.772-2.432
		c0.517-0.576,1.248-0.863,2.197-0.863c0.923,0,1.645,0.293,2.162,0.879C168.316,231.939,168.576,232.748,168.576,233.779z
		 M163.456,233.779c0,0.869,0.185,1.529,0.556,1.979c0.37,0.45,0.909,0.676,1.615,0.676c0.712,0,1.25-0.226,1.613-0.674
		c0.362-0.447,0.545-1.107,0.545-1.98c0-0.861-0.182-1.521-0.543-1.967c-0.362-0.443-0.897-0.67-1.606-0.67
		c-0.712,0-1.253,0.229-1.624,0.674C163.64,232.268,163.456,232.92,163.456,233.779z"/>
	<path fill="#444444" d="M172.851,237l-2.18-5.695h-0.035c0.041,0.451,0.063,0.987,0.063,1.608V237h-0.69v-6.425h1.125l2.035,5.3
		h0.035l2.052-5.3h1.116V237h-0.747v-4.141c0-0.479,0.021-0.989,0.062-1.547h-0.034L173.454,237H172.851z"/>
	<path fill="#444444" d="M177.62,234.922v-0.668h2.158v0.668H177.62z"/>
	<path fill="#444444" d="M181.03,230.575h1.814c0.854,0,1.469,0.128,1.851,0.382c0.381,0.256,0.57,0.658,0.57,1.209
		c0,0.381-0.105,0.695-0.318,0.941c-0.212,0.248-0.522,0.408-0.93,0.479v0.044c0.977,0.167,1.463,0.683,1.463,1.538
		c0,0.574-0.193,1.021-0.582,1.348c-0.389,0.319-0.931,0.48-1.628,0.48h-2.24V230.575z M181.777,233.326h1.229
		c0.527,0,0.907-0.082,1.138-0.248c0.231-0.166,0.348-0.445,0.348-0.838c0-0.359-0.129-0.619-0.388-0.779
		c-0.258-0.16-0.668-0.24-1.229-0.24h-1.099L181.777,233.326L181.777,233.326z M181.777,233.959v2.404h1.34
		c0.519,0,0.909-0.102,1.171-0.303c0.262-0.199,0.394-0.519,0.394-0.941c0-0.398-0.134-0.691-0.401-0.879
		c-0.269-0.188-0.677-0.281-1.225-0.281H181.777L181.777,233.959z"/>
</g>
<g>
	<path fill="#444444" d="M140.019,203.575h1.815c0.853,0,1.469,0.128,1.85,0.382c0.381,0.256,0.571,0.658,0.571,1.209
		c0,0.381-0.106,0.695-0.319,0.941c-0.212,0.248-0.521,0.408-0.929,0.479v0.044c0.976,0.167,1.463,0.683,1.463,1.538
		c0,0.574-0.194,1.021-0.582,1.348c-0.389,0.319-0.931,0.48-1.628,0.48h-2.241V203.575z M140.766,206.326h1.23
		c0.526,0,0.907-0.082,1.138-0.248c0.231-0.166,0.347-0.445,0.347-0.838c0-0.359-0.129-0.619-0.387-0.779s-0.668-0.24-1.229-0.24
		h-1.1L140.766,206.326L140.766,206.326z M140.766,206.959v2.404h1.34c0.52,0,0.909-0.104,1.172-0.303
		c0.262-0.199,0.394-0.519,0.394-0.941c0-0.398-0.134-0.691-0.402-0.879c-0.268-0.188-0.676-0.281-1.224-0.281H140.766
		L140.766,206.959z"/>
	<path fill="#444444" d="M151.428,206.779c0,1.027-0.26,1.836-0.78,2.426c-0.52,0.588-1.242,0.883-2.168,0.883
		c-0.945,0-1.676-0.289-2.19-0.867s-0.771-1.396-0.771-2.451c0-1.045,0.258-1.854,0.773-2.432c0.516-0.576,1.248-0.863,2.197-0.863
		c0.923,0,1.644,0.293,2.161,0.879C151.169,204.939,151.428,205.748,151.428,206.779z M146.308,206.779
		c0,0.869,0.186,1.529,0.557,1.979c0.369,0.45,0.908,0.676,1.614,0.676c0.712,0,1.25-0.226,1.613-0.674
		c0.363-0.447,0.545-1.107,0.545-1.979c0-0.865-0.181-1.521-0.543-1.969c-0.362-0.445-0.896-0.67-1.605-0.67
		c-0.713,0-1.253,0.227-1.624,0.674C146.494,205.268,146.308,205.92,146.308,206.779z"/>
	<path fill="#444444" d="M154.839,210h-0.747v-5.762h-2.035v-0.663h4.816v0.663h-2.035L154.839,210L154.839,210z"/>
	<path fill="#444444" d="M159.817,210h-0.746v-5.762h-2.035v-0.663h4.815v0.663h-2.035L159.817,210L159.817,210z"/>
	<path fill="#444444" d="M168.395,206.779c0,1.027-0.26,1.836-0.779,2.426c-0.521,0.588-1.243,0.883-2.168,0.883
		c-0.946,0-1.677-0.289-2.191-0.867c-0.514-0.578-0.771-1.396-0.771-2.451c0-1.045,0.258-1.854,0.772-2.432
		c0.516-0.576,1.248-0.863,2.197-0.863c0.923,0,1.644,0.293,2.162,0.879C168.135,204.939,168.395,205.748,168.395,206.779z
		 M163.275,206.779c0,0.869,0.186,1.529,0.557,1.979c0.37,0.45,0.909,0.676,1.615,0.676c0.712,0,1.25-0.226,1.612-0.674
		c0.363-0.447,0.545-1.107,0.545-1.979c0-0.865-0.181-1.521-0.543-1.969c-0.361-0.445-0.896-0.67-1.605-0.67
		c-0.712,0-1.253,0.227-1.624,0.674C163.461,205.268,163.275,205.92,163.275,206.779z"/>
	<path fill="#444444" d="M172.672,210l-2.18-5.695h-0.035c0.041,0.451,0.062,0.987,0.062,1.608V210h-0.689v-6.425h1.125l2.035,5.3
		h0.034l2.053-5.3h1.115V210h-0.746v-4.141c0-0.479,0.021-0.989,0.062-1.547h-0.035L173.273,210H172.672z"/>
	<path fill="#444444" d="M177.439,207.922v-0.668h2.158v0.668H177.439z"/>
	<path fill="#444444" d="M184.888,210l-0.8-2.043h-2.575L180.722,210h-0.756l2.54-6.451h0.628l2.527,6.451H184.888z
		 M183.855,207.284l-0.747-1.991c-0.097-0.252-0.195-0.561-0.299-0.927c-0.063,0.28-0.156,0.591-0.276,0.927l-0.756,1.991H183.855z"
		/>
</g>
<g>
	<path fill="#444444" d="M147.001,261h-0.747v-6.425h3.582v0.663h-2.834v2.352h2.663v0.664h-2.663L147.001,261L147.001,261z"/>
	<path fill="#444444" d="M156.474,257.779c0,1.027-0.26,1.836-0.779,2.426c-0.521,0.588-1.243,0.883-2.168,0.883
		c-0.946,0-1.677-0.289-2.191-0.868c-0.514-0.577-0.771-1.396-0.771-2.45c0-1.045,0.258-1.854,0.772-2.432
		c0.517-0.576,1.248-0.863,2.197-0.863c0.923,0,1.644,0.293,2.162,0.879C156.215,255.939,156.474,256.748,156.474,257.779z
		 M151.356,257.779c0,0.869,0.185,1.529,0.556,1.979c0.37,0.45,0.909,0.676,1.615,0.676c0.712,0,1.25-0.226,1.612-0.674
		c0.363-0.447,0.545-1.107,0.545-1.98c0-0.861-0.181-1.521-0.543-1.967c-0.361-0.443-0.896-0.67-1.605-0.67
		c-0.712,0-1.253,0.229-1.624,0.674C151.541,256.268,151.356,256.92,151.356,257.779z"/>
	<path fill="#444444" d="M163.485,257.779c0,1.027-0.261,1.836-0.78,2.426c-0.521,0.588-1.243,0.883-2.168,0.883
		c-0.946,0-1.676-0.289-2.191-0.868c-0.514-0.577-0.771-1.396-0.771-2.45c0-1.045,0.258-1.854,0.772-2.432
		c0.517-0.576,1.248-0.863,2.197-0.863c0.923,0,1.645,0.293,2.162,0.879S163.485,256.748,163.485,257.779z M158.365,257.779
		c0,0.869,0.185,1.529,0.556,1.979c0.37,0.45,0.909,0.676,1.615,0.676c0.712,0,1.25-0.226,1.613-0.674
		c0.362-0.447,0.545-1.107,0.545-1.98c0-0.861-0.182-1.521-0.543-1.967c-0.362-0.443-0.897-0.67-1.606-0.67
		c-0.712,0-1.253,0.229-1.624,0.674C158.55,256.268,158.365,256.92,158.365,257.779z"/>
	<path fill="#444444" d="M166.895,261h-0.747v-5.762h-2.035v-0.663h4.815v0.663h-2.035V261H166.895z"/>
	<path fill="#444444" d="M173.478,261h-3.582v-6.425h3.582v0.663h-2.835v2.07h2.663v0.654h-2.663v2.364h2.835V261z"/>
	<path fill="#444444" d="M175.649,258.328V261h-0.747v-6.425h1.762c0.788,0,1.37,0.151,1.747,0.452
		c0.376,0.303,0.563,0.756,0.563,1.363c0,0.85-0.431,1.424-1.292,1.723l1.745,2.887h-0.883l-1.556-2.672H175.649z M175.649,257.688
		h1.023c0.527,0,0.914-0.104,1.16-0.312c0.246-0.209,0.369-0.521,0.369-0.938c0-0.429-0.125-0.729-0.376-0.918
		c-0.25-0.188-0.652-0.281-1.206-0.281h-0.971V257.688L175.649,257.688z"/>
</g>
<g>
	<path fill="#444444" d="M268.868,173.277c0.565,0,1.006,0.205,1.323,0.615c0.316,0.41,0.475,0.967,0.475,1.67
		c0,0.762-0.098,1.348-0.294,1.758h-0.721c0.111-0.264,0.199-0.551,0.264-0.861c0.065-0.31,0.098-0.617,0.098-0.923
		c0-0.498-0.095-0.873-0.284-1.125c-0.188-0.252-0.452-0.378-0.789-0.378c-0.224,0-0.405,0.045-0.547,0.135
		c-0.143,0.09-0.273,0.238-0.394,0.447c-0.12,0.21-0.256,0.528-0.409,0.956c-0.214,0.599-0.467,1.024-0.76,1.281
		c-0.293,0.256-0.675,0.384-1.146,0.384c-0.495,0-0.89-0.186-1.183-0.559c-0.293-0.371-0.44-0.863-0.44-1.479
		c0-0.64,0.117-1.229,0.352-1.762l0.65,0.229c-0.224,0.529-0.334,1.045-0.334,1.547c0,0.396,0.085,0.705,0.255,0.93
		c0.17,0.223,0.406,0.335,0.708,0.335c0.223,0,0.405-0.041,0.547-0.123c0.143-0.082,0.272-0.224,0.392-0.416
		c0.118-0.194,0.25-0.493,0.394-0.896c0.24-0.675,0.498-1.139,0.772-1.393C268.072,173.404,268.429,173.277,268.868,173.277z"/>
	<path fill="#444444" d="M270.577,171.963h-6.425v-0.746h6.425V171.963z"/>
	<path fill="#444444" d="M267.304,164.325c1.061,0,1.871,0.288,2.432,0.863c0.562,0.575,0.842,1.403,0.842,2.485v1.775h-6.425
		v-1.969c0-0.999,0.277-1.771,0.831-2.329C265.537,164.602,266.311,164.325,267.304,164.325z M267.33,165.116
		c-0.838,0-1.469,0.21-1.894,0.631s-0.638,1.046-0.638,1.874v1.086h5.134v-0.91c0-0.892-0.22-1.561-0.657-2.009
		C268.837,165.34,268.189,165.116,267.33,165.116z"/>
	<path fill="#444444" d="M270.577,159.312v3.582h-6.425v-3.582h0.664v2.834h2.07v-2.663h0.658v2.663h2.364v-2.834H270.577z"/>
	<path fill="#444444" d="M264.153,157.887v-1.814c0-0.854,0.127-1.469,0.382-1.85s0.658-0.571,1.208-0.571
		c0.381,0,0.695,0.106,0.942,0.319c0.248,0.211,0.408,0.521,0.48,0.929h0.044c0.167-0.976,0.681-1.463,1.538-1.463
		c0.574,0,1.022,0.194,1.346,0.582c0.321,0.389,0.482,0.931,0.482,1.628v2.24H264.153L264.153,157.887z M266.904,157.141v-1.23
		c0-0.527-0.083-0.906-0.248-1.138s-0.445-0.347-0.837-0.347c-0.36,0-0.62,0.129-0.78,0.387s-0.24,0.668-0.24,1.23v1.098H266.904
		L266.904,157.141z M267.536,157.141h2.404v-1.34c0-0.521-0.101-0.91-0.301-1.172c-0.2-0.266-0.516-0.396-0.942-0.396
		c-0.398,0-0.691,0.134-0.879,0.398c-0.188,0.271-0.281,0.68-0.281,1.228L267.536,157.141L267.536,157.141z"/>
	<path fill="#444444" d="M270.577,148.018l-2.043,0.799v2.576l2.043,0.791v0.756l-6.451-2.541v-0.627l6.451-2.528V148.018z
		 M267.862,149.051l-1.991,0.746c-0.252,0.098-0.561,0.191-0.927,0.299c0.281,0.061,0.59,0.158,0.927,0.273l1.991,0.76V149.051z"/>
	<path fill="#444444" d="M267.906,145.613h2.672v0.747h-6.425v-1.763c0-0.787,0.151-1.369,0.453-1.746s0.756-0.564,1.362-0.564
		c0.85,0,1.424,0.432,1.723,1.292l2.887-1.745v0.883l-2.672,1.561V145.613z M267.265,145.613v-1.023c0-0.523-0.104-0.914-0.314-1.16
		c-0.209-0.242-0.522-0.365-0.942-0.365c-0.425,0-0.73,0.125-0.918,0.376c-0.188,0.25-0.28,0.647-0.28,1.206v0.971L267.265,145.613
		L267.265,145.613z"/>
	<path fill="#444444" d="M268.498,141.311h-0.668v-2.158h0.668V141.311z"/>
	<path fill="#444444" d="M270.577,133.862l-2.043,0.8v2.575l2.043,0.791v0.756l-6.451-2.54v-0.628l6.451-2.526V133.862z
		 M267.862,134.895l-1.991,0.747c-0.252,0.097-0.561,0.195-0.927,0.299c0.281,0.064,0.59,0.156,0.927,0.277l1.991,0.756V134.895z"/>
</g>
<g>
	<path fill="#444444" d="M309.702,173.097c0.564,0,1.007,0.205,1.322,0.614c0.315,0.41,0.476,0.968,0.476,1.67
		c0,0.763-0.101,1.349-0.295,1.759h-0.722c0.111-0.265,0.199-0.552,0.265-0.861c0.063-0.309,0.098-0.616,0.098-0.923
		c0-0.498-0.096-0.873-0.285-1.125c-0.188-0.252-0.451-0.378-0.787-0.378c-0.224,0-0.404,0.045-0.549,0.135
		c-0.141,0.091-0.271,0.238-0.393,0.447c-0.12,0.21-0.256,0.528-0.408,0.956c-0.215,0.6-0.468,1.023-0.761,1.281
		c-0.293,0.256-0.676,0.384-1.147,0.384c-0.494,0-0.889-0.187-1.182-0.56c-0.293-0.371-0.439-0.863-0.439-1.479
		c0-0.643,0.117-1.229,0.353-1.764l0.649,0.232c-0.224,0.528-0.334,1.045-0.334,1.547c0,0.396,0.084,0.705,0.254,0.926
		c0.17,0.226,0.406,0.334,0.709,0.334c0.224,0,0.404-0.039,0.547-0.121c0.144-0.08,0.271-0.221,0.393-0.416
		c0.118-0.192,0.25-0.491,0.394-0.895c0.24-0.675,0.498-1.139,0.772-1.393C308.904,173.224,309.262,173.097,309.702,173.097z"/>
	<path fill="#444444" d="M311.412,171.783h-6.427v-0.746h6.427V171.783z"/>
	<path fill="#444444" d="M308.137,164.145c1.063,0,1.872,0.288,2.434,0.863c0.562,0.574,0.843,1.402,0.843,2.484v1.776h-6.427v-1.97
		c0-0.998,0.277-1.774,0.832-2.328C306.372,164.42,307.145,164.145,308.137,164.145z M308.164,164.936
		c-0.838,0-1.47,0.21-1.896,0.631c-0.424,0.421-0.637,1.046-0.637,1.874v1.085h5.133v-0.908c0-0.893-0.219-1.562-0.656-2.01
		C309.67,165.162,309.021,164.936,308.164,164.936z"/>
	<path fill="#444444" d="M311.412,159.131v3.582h-6.427v-3.582h0.664v2.834h2.07v-2.663h0.659v2.663h2.365v-2.834H311.412z"/>
	<path fill="#444444" d="M304.986,157.707v-1.812c0-0.854,0.127-1.471,0.383-1.853c0.255-0.381,0.656-0.568,1.208-0.568
		c0.381,0,0.694,0.104,0.94,0.316c0.248,0.211,0.408,0.521,0.482,0.932h0.043c0.168-0.979,0.68-1.467,1.539-1.467
		c0.573,0,1.021,0.195,1.344,0.582c0.322,0.393,0.484,0.935,0.484,1.632v2.237H304.986z M307.736,156.959v-1.229
		c0-0.526-0.082-0.905-0.248-1.138c-0.163-0.231-0.443-0.348-0.836-0.348c-0.359,0-0.619,0.129-0.779,0.387
		c-0.16,0.259-0.24,0.668-0.24,1.229v1.1H307.736L307.736,156.959z M308.371,156.959h2.401v-1.34c0-0.521-0.101-0.91-0.301-1.175
		c-0.199-0.262-0.515-0.394-0.941-0.394c-0.397,0-0.69,0.134-0.879,0.398c-0.188,0.271-0.28,0.676-0.28,1.228V156.959z"/>
	<path fill="#444444" d="M311.412,147.836l-2.044,0.801v2.574l2.044,0.791v0.756l-6.452-2.539v-0.629l6.452-2.526V147.836z
		 M308.695,148.871l-1.989,0.746c-0.252,0.098-0.562,0.195-0.929,0.299c0.281,0.064,0.592,0.158,0.929,0.277l1.989,0.756V148.871z"
		/>
	<path fill="#444444" d="M308.74,145.433h2.672v0.747h-6.427v-1.764c0-0.787,0.152-1.369,0.453-1.746
		c0.304-0.377,0.756-0.563,1.362-0.563c0.851,0,1.425,0.433,1.724,1.292l2.889-1.745v0.884l-2.672,1.56L308.74,145.433
		L308.74,145.433z M308.098,145.433v-1.022c0-0.524-0.104-0.914-0.313-1.16c-0.209-0.246-0.523-0.369-0.942-0.369
		c-0.425,0-0.731,0.125-0.918,0.375c-0.188,0.25-0.28,0.652-0.28,1.207v0.974L308.098,145.433L308.098,145.433z"/>
	<path fill="#444444" d="M309.332,141.131h-0.668v-2.158h0.668V141.131z"/>
	<path fill="#444444" d="M304.986,137.721v-1.815c0-0.853,0.127-1.469,0.383-1.85c0.255-0.381,0.656-0.571,1.208-0.571
		c0.381,0,0.694,0.106,0.94,0.319c0.248,0.212,0.408,0.521,0.482,0.929h0.043c0.168-0.976,0.68-1.463,1.539-1.463
		c0.573,0,1.021,0.194,1.344,0.582c0.322,0.39,0.484,0.932,0.484,1.628v2.241H304.986z M307.736,136.974v-1.229
		c0-0.523-0.082-0.906-0.248-1.139c-0.163-0.23-0.443-0.347-0.836-0.347c-0.359,0-0.619,0.129-0.779,0.387s-0.24,0.668-0.24,1.229
		v1.1L307.736,136.974L307.736,136.974z M308.371,136.974h2.401v-1.34c0-0.521-0.101-0.909-0.301-1.171
		c-0.199-0.263-0.515-0.395-0.941-0.395c-0.397,0-0.69,0.133-0.879,0.401c-0.188,0.268-0.28,0.676-0.28,1.224V136.974z"/>
</g>
<rect id="sidebar-a__x28_right_x29__1_" x="41.44" y="44.205" opacity="0.2" fill="#444444" enable-background="new    " width="36" height="222"/>
<rect id="sidebar-b__x28_right_x29__1_" x="0" y="44.205" opacity="0.2" fill="#444444" enable-background="new    " width="36" height="222"/>
<g>
	<path fill="#444444" d="M21.308,173.277c0.565,0,1.006,0.205,1.323,0.615c0.316,0.41,0.475,0.967,0.475,1.67
		c0,0.762-0.098,1.348-0.294,1.758h-0.721c0.111-0.264,0.199-0.551,0.264-0.861c0.065-0.31,0.098-0.617,0.098-0.923
		c0-0.498-0.095-0.873-0.284-1.125c-0.188-0.252-0.452-0.378-0.789-0.378c-0.224,0-0.405,0.045-0.547,0.135
		c-0.143,0.09-0.273,0.238-0.394,0.447c-0.12,0.21-0.256,0.528-0.409,0.956c-0.214,0.599-0.467,1.024-0.76,1.281
		c-0.293,0.256-0.675,0.384-1.146,0.384c-0.495,0-0.89-0.186-1.183-0.559c-0.293-0.371-0.44-0.863-0.44-1.479
		c0-0.64,0.117-1.229,0.352-1.762l0.65,0.229c-0.224,0.529-0.334,1.045-0.334,1.547c0,0.396,0.085,0.705,0.255,0.93
		c0.17,0.223,0.406,0.335,0.708,0.335c0.223,0,0.405-0.041,0.547-0.123c0.143-0.082,0.272-0.224,0.392-0.416
		c0.118-0.194,0.25-0.493,0.394-0.896c0.24-0.675,0.498-1.139,0.772-1.393C20.511,173.404,20.868,173.277,21.308,173.277z"/>
	<path fill="#444444" d="M23.017,171.963h-6.425v-0.746h6.425V171.963z"/>
	<path fill="#444444" d="M19.743,164.325c1.061,0,1.871,0.288,2.432,0.863c0.562,0.575,0.842,1.403,0.842,2.485v1.775h-6.425v-1.969
		c0-0.999,0.277-1.771,0.831-2.329C17.977,164.602,18.75,164.325,19.743,164.325z M19.77,165.116c-0.838,0-1.469,0.21-1.894,0.631
		s-0.638,1.046-0.638,1.874v1.086h5.134v-0.91c0-0.892-0.22-1.561-0.657-2.009C21.277,165.34,20.628,165.116,19.77,165.116z"/>
	<path fill="#444444" d="M23.017,159.312v3.582h-6.425v-3.582h0.664v2.834h2.07v-2.663h0.658v2.663h2.364v-2.834H23.017z"/>
	<path fill="#444444" d="M16.592,157.887v-1.814c0-0.854,0.127-1.469,0.382-1.85s0.658-0.571,1.208-0.571
		c0.381,0,0.695,0.106,0.942,0.319c0.248,0.211,0.408,0.521,0.48,0.929h0.044c0.167-0.976,0.681-1.463,1.538-1.463
		c0.574,0,1.022,0.194,1.346,0.582c0.321,0.389,0.482,0.931,0.482,1.628v2.24H16.592L16.592,157.887z M19.343,157.141v-1.23
		c0-0.527-0.083-0.906-0.248-1.138s-0.445-0.347-0.837-0.347c-0.36,0-0.62,0.129-0.78,0.387s-0.24,0.668-0.24,1.23v1.098H19.343
		L19.343,157.141z M19.976,157.141h2.404v-1.34c0-0.521-0.101-0.91-0.301-1.172c-0.2-0.266-0.516-0.396-0.942-0.396
		c-0.398,0-0.691,0.134-0.879,0.398c-0.188,0.271-0.281,0.68-0.281,1.228L19.976,157.141L19.976,157.141z"/>
	<path fill="#444444" d="M23.017,148.018l-2.043,0.799v2.576l2.043,0.791v0.756l-6.451-2.541v-0.627l6.451-2.528V148.018z
		 M20.301,149.051l-1.991,0.746c-0.252,0.098-0.561,0.191-0.927,0.299c0.281,0.061,0.59,0.158,0.927,0.273l1.991,0.76V149.051z"/>
	<path fill="#444444" d="M20.345,145.613h2.672v0.747h-6.425v-1.763c0-0.787,0.151-1.369,0.453-1.746s0.756-0.564,1.362-0.564
		c0.85,0,1.424,0.432,1.723,1.292l2.887-1.745v0.883l-2.672,1.561V145.613z M19.704,145.613v-1.023c0-0.523-0.104-0.914-0.314-1.16
		c-0.209-0.242-0.522-0.365-0.942-0.365c-0.425,0-0.73,0.125-0.918,0.376c-0.188,0.25-0.28,0.647-0.28,1.206v0.971L19.704,145.613
		L19.704,145.613z"/>
	<path fill="#444444" d="M20.938,141.311H20.27v-2.158h0.668V141.311z"/>
	<path fill="#444444" d="M23.017,133.862l-2.043,0.8v2.575l2.043,0.791v0.756l-6.451-2.54v-0.628l6.451-2.526V133.862z
		 M20.301,134.895l-1.991,0.747c-0.252,0.097-0.561,0.195-0.927,0.299c0.281,0.064,0.59,0.156,0.927,0.277l1.991,0.756V134.895z"/>
</g>
<g>
	<path fill="#444444" d="M62.142,173.097c0.564,0,1.007,0.205,1.322,0.614c0.315,0.41,0.476,0.968,0.476,1.67
		c0,0.763-0.101,1.349-0.295,1.759h-0.722c0.111-0.265,0.199-0.552,0.265-0.861c0.063-0.309,0.098-0.616,0.098-0.923
		c0-0.498-0.096-0.873-0.285-1.125c-0.188-0.252-0.451-0.378-0.787-0.378c-0.224,0-0.404,0.045-0.549,0.135
		c-0.141,0.091-0.271,0.238-0.393,0.447c-0.12,0.21-0.256,0.528-0.408,0.956c-0.215,0.6-0.468,1.023-0.761,1.281
		c-0.293,0.256-0.676,0.384-1.147,0.384c-0.494,0-0.889-0.187-1.182-0.56c-0.293-0.371-0.439-0.863-0.439-1.479
		c0-0.643,0.117-1.229,0.353-1.764l0.649,0.232c-0.224,0.528-0.334,1.045-0.334,1.547c0,0.396,0.084,0.705,0.254,0.926
		c0.17,0.226,0.406,0.334,0.709,0.334c0.224,0,0.404-0.039,0.547-0.121c0.144-0.08,0.271-0.221,0.393-0.416
		c0.118-0.192,0.25-0.491,0.394-0.895c0.24-0.675,0.498-1.139,0.772-1.393C61.343,173.224,61.701,173.097,62.142,173.097z"/>
	<path fill="#444444" d="M63.852,171.783h-6.427v-0.746h6.427V171.783z"/>
	<path fill="#444444" d="M60.576,164.145c1.063,0,1.872,0.288,2.434,0.863c0.562,0.574,0.843,1.402,0.843,2.484v1.776h-6.427v-1.97
		c0-0.998,0.277-1.774,0.832-2.328C58.812,164.42,59.584,164.145,60.576,164.145z M60.604,164.936c-0.838,0-1.47,0.21-1.896,0.631
		c-0.424,0.421-0.637,1.046-0.637,1.874v1.085h5.133v-0.908c0-0.893-0.219-1.562-0.656-2.01
		C62.11,165.162,61.46,164.936,60.604,164.936z"/>
	<path fill="#444444" d="M63.852,159.131v3.582h-6.427v-3.582h0.664v2.834h2.07v-2.663h0.659v2.663h2.365v-2.834H63.852z"/>
	<path fill="#444444" d="M57.425,157.707v-1.812c0-0.854,0.127-1.471,0.383-1.853c0.255-0.381,0.656-0.568,1.208-0.568
		c0.381,0,0.694,0.104,0.94,0.316c0.248,0.211,0.408,0.521,0.482,0.932h0.043c0.168-0.979,0.68-1.467,1.539-1.467
		c0.573,0,1.021,0.195,1.344,0.582c0.322,0.393,0.484,0.935,0.484,1.632v2.237H57.425z M60.175,156.959v-1.229
		c0-0.526-0.082-0.905-0.248-1.138c-0.163-0.231-0.443-0.348-0.836-0.348c-0.359,0-0.619,0.129-0.779,0.387
		c-0.16,0.259-0.24,0.668-0.24,1.229v1.1H60.175L60.175,156.959z M60.811,156.959h2.401v-1.34c0-0.521-0.101-0.91-0.301-1.175
		c-0.199-0.262-0.515-0.394-0.941-0.394c-0.397,0-0.69,0.134-0.879,0.398c-0.188,0.271-0.28,0.676-0.28,1.228V156.959z"/>
	<path fill="#444444" d="M63.852,147.836l-2.044,0.801v2.574l2.044,0.791v0.756l-6.452-2.539v-0.629l6.452-2.526V147.836z
		 M61.134,148.871l-1.989,0.746c-0.252,0.098-0.562,0.195-0.929,0.299c0.281,0.064,0.592,0.158,0.929,0.277l1.989,0.756V148.871z"/>
	<path fill="#444444" d="M61.18,145.433h2.672v0.747h-6.427v-1.764c0-0.787,0.152-1.369,0.453-1.746
		c0.304-0.377,0.756-0.563,1.362-0.563c0.851,0,1.425,0.433,1.724,1.292l2.889-1.745v0.884l-2.672,1.56L61.18,145.433L61.18,145.433
		z M60.537,145.433v-1.022c0-0.524-0.104-0.914-0.313-1.16c-0.209-0.246-0.523-0.369-0.942-0.369c-0.425,0-0.731,0.125-0.918,0.375
		c-0.188,0.25-0.28,0.652-0.28,1.207v0.974L60.537,145.433L60.537,145.433z"/>
	<path fill="#444444" d="M61.772,141.131h-0.668v-2.158h0.668V141.131z"/>
	<path fill="#444444" d="M57.425,137.721v-1.815c0-0.853,0.127-1.469,0.383-1.85c0.255-0.381,0.656-0.571,1.208-0.571
		c0.381,0,0.694,0.106,0.94,0.319c0.248,0.212,0.408,0.521,0.482,0.929h0.043c0.168-0.976,0.68-1.463,1.539-1.463
		c0.573,0,1.021,0.194,1.344,0.582c0.322,0.39,0.484,0.932,0.484,1.628v2.241H57.425z M60.175,136.974v-1.229
		c0-0.523-0.082-0.906-0.248-1.139c-0.163-0.23-0.443-0.347-0.836-0.347c-0.359,0-0.619,0.129-0.779,0.387s-0.24,0.668-0.24,1.229
		v1.1L60.175,136.974L60.175,136.974z M60.811,136.974h2.401v-1.34c0-0.521-0.101-0.909-0.301-1.171
		c-0.199-0.263-0.515-0.395-0.941-0.395c-0.397,0-0.69,0.133-0.879,0.401c-0.188,0.268-0.28,0.676-0.28,1.224V136.974z"/>
</g>
<g id="equal_bg" opacity="0.1">
	<rect x="0.502" y="457" fill="#777777" width="324.25" height="27"/>
</g>
<g id="widget_2_" opacity="0.15">
	<rect x="67.846" y="462" width="79.815" height="17"/>
</g>
<g id="widget_1_" opacity="0.15">
	<rect x="153.897" y="462" width="78.568" height="17"/>
</g>
<g id="widget" opacity="0.15">
	<rect x="238.701" y="462" width="79.815" height="17"/>
</g>
<g id="double_bg" opacity="0.1">
	<rect x="0.502" y="543" fill="#777777" width="324.25" height="27"/>
</g>
<g id="widget_4_" opacity="0.15">
	<rect x="67.846" y="548" width="164.619" height="17"/>
</g>
<g id="widget_3_" opacity="0.15">
	<rect x="238.701" y="548" width="79.815" height="17"/>
</g>
<g id="stack_bg" opacity="0.1">
	<rect x="0.502" y="489" fill="#777777" width="324.25" height="49"/>
</g>
<g id="widget_5_" opacity="0.15">
	<rect x="67.846" y="494" width="250.67" height="17"/>
</g>
<g id="widget_6_" opacity="0.15">
	<rect x="67.846" y="516" width="250.67" height="17"/>
</g>
<g>
	<path fill="#444444" d="M9.877,446.876H8.811l-1.871-6.214c-0.09-0.275-0.188-0.622-0.299-1.041
		c-0.109-0.419-0.168-0.671-0.172-0.755c-0.093,0.559-0.24,1.17-0.443,1.834l-1.813,6.176H3.148l-2.471-9.278h1.145l1.469,5.73
		c0.201,0.804,0.353,1.531,0.441,2.184c0.112-0.771,0.281-1.531,0.508-2.271l1.664-5.646h1.145l1.744,5.692
		c0.201,0.653,0.375,1.396,0.517,2.222c0.079-0.601,0.23-1.33,0.456-2.193l1.46-5.719h1.146L9.877,446.876z"/>
	<path fill="#444444" d="M13.564,438.034c0-0.241,0.061-0.418,0.179-0.53c0.118-0.111,0.268-0.168,0.443-0.168
		c0.168,0,0.312,0.059,0.438,0.171c0.123,0.114,0.187,0.29,0.187,0.527c0,0.235-0.063,0.414-0.187,0.528
		c-0.122,0.117-0.271,0.177-0.438,0.177c-0.181,0-0.325-0.06-0.443-0.177S13.564,438.271,13.564,438.034z M14.707,446.876h-1.054
		v-6.957h1.054V446.876z"/>
	<path fill="#444444" d="M21.678,445.941h-0.059c-0.485,0.707-1.214,1.062-2.186,1.062c-0.907,0-1.616-0.312-2.123-0.935
		c-0.506-0.62-0.76-1.506-0.76-2.651s0.256-2.038,0.765-2.672c0.509-0.636,1.215-0.952,2.118-0.952c0.941,0,1.668,0.344,2.173,1.027
		h0.081l-0.045-0.502l-0.023-0.487V437h1.056v9.876H21.82L21.678,445.941z M19.57,446.121c0.72,0,1.239-0.196,1.563-0.587
		c0.323-0.392,0.484-1.023,0.484-1.896v-0.226c0-0.983-0.163-1.688-0.491-2.108c-0.327-0.424-0.854-0.634-1.57-0.634
		c-0.615,0-1.091,0.24-1.419,0.724c-0.325,0.479-0.489,1.155-0.489,2.035c0,0.889,0.162,1.56,0.486,2.012
		C18.461,445.895,18.94,446.121,19.57,446.121z"/>
	<path fill="#444444" d="M30.602,439.919v0.667l-1.286,0.15c0.116,0.146,0.227,0.344,0.315,0.582
		c0.094,0.238,0.141,0.51,0.141,0.811c0,0.682-0.229,1.227-0.698,1.631c-0.465,0.406-1.104,0.609-1.914,0.609
		c-0.207,0-0.401-0.018-0.586-0.053c-0.446,0.238-0.674,0.535-0.674,0.896c0,0.188,0.077,0.331,0.233,0.422
		c0.156,0.093,0.426,0.14,0.808,0.14h1.23c0.753,0,1.332,0.158,1.734,0.478c0.403,0.315,0.604,0.776,0.604,1.384
		c0,0.771-0.311,1.356-0.929,1.764c-0.616,0.401-1.521,0.604-2.702,0.604c-0.91,0-1.608-0.169-2.104-0.508
		c-0.491-0.342-0.737-0.817-0.737-1.438c0-0.425,0.136-0.789,0.405-1.1c0.271-0.311,0.648-0.521,1.145-0.628
		c-0.179-0.081-0.327-0.205-0.446-0.375c-0.121-0.169-0.184-0.366-0.184-0.591c0-0.256,0.064-0.478,0.203-0.666
		c0.137-0.191,0.351-0.375,0.642-0.555c-0.357-0.146-0.65-0.397-0.879-0.754c-0.229-0.354-0.341-0.765-0.341-1.222
		c0-0.762,0.229-1.351,0.688-1.761c0.457-0.413,1.104-0.619,1.941-0.619c0.363,0,0.69,0.042,0.981,0.127L30.602,439.919
		L30.602,439.919z M25.055,448.044c0,0.376,0.158,0.662,0.478,0.856c0.317,0.191,0.771,0.291,1.362,0.291
		c0.886,0,1.541-0.131,1.966-0.396c0.429-0.264,0.643-0.623,0.643-1.074c0-0.378-0.117-0.64-0.354-0.783
		c-0.229-0.146-0.671-0.222-1.312-0.222h-1.266c-0.479,0-0.853,0.114-1.115,0.345C25.19,447.289,25.055,447.617,25.055,448.044z
		 M25.624,442.146c0,0.483,0.139,0.854,0.413,1.104c0.273,0.249,0.657,0.375,1.148,0.375c1.023,0,1.541-0.5,1.541-1.498
		c0-1.045-0.521-1.566-1.563-1.566c-0.494,0-0.876,0.133-1.146,0.398C25.757,441.229,25.624,441.622,25.624,442.146z"/>
	<path fill="#444444" d="M34.971,447.003c-1.028,0-1.84-0.312-2.436-0.938c-0.595-0.625-0.893-1.496-0.893-2.605
		c0-1.122,0.271-2.016,0.828-2.672c0.552-0.66,1.293-0.99,2.226-0.99c0.871,0,1.563,0.287,2.067,0.857
		c0.509,0.572,0.763,1.33,0.763,2.271v0.667h-4.791c0.021,0.817,0.228,1.438,0.616,1.86c0.393,0.423,0.939,0.635,1.651,0.635
		c0.75,0,1.489-0.154,2.227-0.47v0.938c-0.373,0.159-0.729,0.274-1.063,0.346C35.841,446.968,35.44,447.003,34.971,447.003z
		 M34.686,440.674c-0.561,0-1.004,0.184-1.336,0.547s-0.528,0.867-0.588,1.512h3.637c0-0.666-0.146-1.174-0.44-1.524
		C35.657,440.852,35.234,440.674,34.686,440.674z"/>
	<path fill="#444444" d="M41.57,446.133c0.188,0,0.366-0.014,0.541-0.042c0.173-0.026,0.312-0.056,0.411-0.085v0.807
		c-0.114,0.059-0.282,0.104-0.506,0.141c-0.225,0.033-0.424,0.054-0.603,0.054c-1.348,0-2.021-0.709-2.021-2.126v-4.143h-0.991
		v-0.508l0.996-0.438l0.441-1.482h0.608v1.609h2.02v0.816h-2.02v4.097c0,0.419,0.101,0.74,0.298,0.965
		C40.95,446.021,41.225,446.133,41.57,446.133z"/>
	<path fill="#444444" d="M47.448,446.876v-9.278h1.08v8.303h4.094v0.979L47.448,446.876L47.448,446.876z"/>
	<path fill="#444444" d="M58.316,446.876l-0.214-0.99h-0.051c-0.348,0.438-0.688,0.731-1.037,0.888
		c-0.345,0.152-0.771,0.229-1.29,0.229c-0.688,0-1.229-0.178-1.623-0.532c-0.394-0.354-0.586-0.861-0.586-1.518
		c0-1.405,1.123-2.143,3.368-2.209l1.186-0.038v-0.433c0-0.547-0.118-0.948-0.354-1.209c-0.231-0.26-0.606-0.394-1.127-0.394
		c-0.58,0-1.234,0.181-1.969,0.533l-0.323-0.81c0.345-0.187,0.72-0.332,1.127-0.438c0.407-0.104,0.817-0.158,1.229-0.158
		c0.829,0,1.44,0.186,1.844,0.553c0.396,0.369,0.601,0.959,0.601,1.771v4.75h-0.778L58.316,446.876L58.316,446.876z M55.938,446.133
		c0.654,0,1.174-0.18,1.548-0.54c0.375-0.358,0.563-0.862,0.563-1.511v-0.628l-1.056,0.044c-0.84,0.029-1.44,0.16-1.812,0.393
		c-0.369,0.229-0.557,0.588-0.557,1.074c0,0.383,0.114,0.672,0.347,0.87C55.197,446.034,55.522,446.133,55.938,446.133z"/>
	<path fill="#444444" d="M60.162,439.919h1.131l1.522,3.967c0.334,0.906,0.542,1.563,0.618,1.962h0.055
		c0.056-0.217,0.17-0.586,0.347-1.104c0.176-0.521,0.75-2.133,1.724-4.821h1.134l-2.989,7.923c-0.297,0.782-0.646,1.34-1.038,1.665
		c-0.396,0.328-0.882,0.492-1.456,0.492c-0.321,0-0.64-0.036-0.952-0.104v-0.848c0.231,0.055,0.493,0.076,0.78,0.076
		c0.724,0,1.239-0.404,1.55-1.221l0.387-0.988L60.162,439.919z"/>
	<path fill="#444444" d="M73.823,443.393c0,1.133-0.286,2.021-0.855,2.655c-0.572,0.638-1.357,0.955-2.368,0.955
		c-0.622,0-1.175-0.146-1.653-0.438c-0.481-0.293-0.854-0.711-1.117-1.258c-0.266-0.547-0.396-1.186-0.396-1.916
		c0-1.136,0.283-2.02,0.854-2.647c0.563-0.636,1.354-0.949,2.357-0.949c0.978,0,1.747,0.324,2.32,0.974
		C73.535,441.41,73.823,442.287,73.823,443.393z M68.523,443.393c0,0.892,0.178,1.564,0.529,2.029
		c0.354,0.467,0.878,0.698,1.566,0.698s1.214-0.231,1.571-0.695c0.354-0.464,0.532-1.142,0.532-2.034
		c0-0.885-0.179-1.557-0.532-2.016c-0.357-0.459-0.89-0.688-1.584-0.688c-0.689,0-1.211,0.228-1.563,0.68
		C68.696,441.816,68.523,442.494,68.523,443.393z"/>
	<path fill="#444444" d="M76.66,439.919v4.515c0,0.565,0.129,0.988,0.388,1.271c0.259,0.277,0.663,0.419,1.213,0.419
		c0.729,0,1.26-0.199,1.601-0.599c0.336-0.396,0.505-1.047,0.505-1.947v-3.656h1.054v6.956h-0.869l-0.151-0.935h-0.058
		c-0.218,0.345-0.517,0.604-0.896,0.787c-0.385,0.184-0.818,0.271-1.312,0.271c-0.848,0-1.479-0.201-1.9-0.604
		c-0.422-0.399-0.633-1.045-0.633-1.932v-4.551h1.063L76.66,439.919L76.66,439.919z"/>
	<path fill="#444444" d="M85.898,446.133c0.187,0,0.362-0.014,0.536-0.042c0.177-0.026,0.312-0.056,0.412-0.085v0.807
		c-0.11,0.059-0.278,0.104-0.505,0.141c-0.223,0.033-0.423,0.054-0.601,0.054c-1.35,0-2.021-0.709-2.021-2.126v-4.143h-0.996v-0.508
		l0.996-0.438l0.443-1.482h0.608v1.609h2.02v0.816h-2.02v4.097c0,0.419,0.101,0.74,0.299,0.965
		C85.277,446.021,85.551,446.133,85.898,446.133z"/>
	<path fill="#444444" d="M92.728,444.979c0,0.646-0.238,1.146-0.725,1.498c-0.483,0.354-1.159,0.526-2.031,0.526
		c-0.922,0-1.643-0.146-2.157-0.438v-0.979c0.338,0.169,0.692,0.305,1.075,0.398c0.387,0.099,0.752,0.146,1.106,0.146
		c0.552,0,0.975-0.088,1.271-0.263c0.297-0.178,0.445-0.443,0.445-0.805c0-0.271-0.118-0.502-0.354-0.693
		c-0.235-0.193-0.693-0.42-1.374-0.686c-0.647-0.24-1.107-0.451-1.385-0.632c-0.271-0.182-0.478-0.386-0.605-0.612
		c-0.134-0.229-0.199-0.5-0.199-0.816c0-0.564,0.229-1.018,0.691-1.342c0.461-0.328,1.094-0.492,1.896-0.492
		c0.749,0,1.48,0.15,2.195,0.457l-0.375,0.855c-0.696-0.289-1.33-0.435-1.896-0.435c-0.499,0-0.876,0.078-1.13,0.233
		c-0.254,0.156-0.382,0.373-0.382,0.646c0,0.188,0.049,0.35,0.144,0.479c0.1,0.132,0.249,0.257,0.465,0.375
		c0.211,0.119,0.613,0.289,1.219,0.515c0.824,0.3,1.382,0.604,1.672,0.908C92.581,444.131,92.728,444.518,92.728,444.979z"/>
</g>
<g>
	<path fill="#444444" d="M7.016,295.908c0,0.816-0.297,1.453-0.89,1.91c-0.594,0.457-1.396,0.687-2.412,0.687
		c-1.102,0-1.946-0.142-2.539-0.425v-1.041c0.382,0.161,0.796,0.288,1.244,0.381c0.447,0.093,0.894,0.141,1.333,0.141
		c0.721,0,1.262-0.137,1.625-0.41c0.362-0.272,0.546-0.652,0.546-1.14c0-0.321-0.063-0.585-0.192-0.791
		c-0.129-0.204-0.346-0.395-0.646-0.567c-0.305-0.174-0.766-0.371-1.381-0.59c-0.863-0.31-1.479-0.676-1.854-1.099
		c-0.371-0.423-0.558-0.976-0.558-1.657c0-0.715,0.271-1.283,0.808-1.707c0.536-0.425,1.248-0.636,2.133-0.636
		c0.927,0,1.771,0.169,2.545,0.509l-0.336,0.938c-0.767-0.322-1.51-0.482-2.23-0.482c-0.569,0-1.021,0.123-1.34,0.368
		c-0.321,0.246-0.479,0.586-0.479,1.021c0,0.322,0.061,0.586,0.178,0.791c0.119,0.205,0.316,0.394,0.603,0.564
		c0.28,0.171,0.712,0.36,1.292,0.568c0.974,0.347,1.644,0.719,2.011,1.117C6.838,294.757,7.016,295.273,7.016,295.908z"/>
	<path fill="#444444" d="M8.664,289.535c0-0.241,0.061-0.418,0.179-0.53s0.268-0.168,0.443-0.168c0.169,0,0.313,0.058,0.438,0.171
		c0.123,0.114,0.188,0.29,0.188,0.527c0,0.236-0.062,0.414-0.188,0.529c-0.121,0.117-0.27,0.176-0.438,0.176
		c-0.178,0-0.325-0.059-0.443-0.176S8.664,289.771,8.664,289.535z M9.809,298.377H8.754v-6.957h1.055V298.377z"/>
	<path fill="#444444" d="M16.777,297.443h-0.062c-0.483,0.707-1.215,1.061-2.185,1.061c-0.909,0-1.617-0.311-2.123-0.934
		c-0.508-0.621-0.76-1.506-0.76-2.652s0.256-2.038,0.764-2.672c0.509-0.635,1.214-0.952,2.119-0.952c0.94,0,1.668,0.343,2.172,1.028
		h0.082l-0.045-0.502l-0.024-0.488v-2.831h1.058v9.876h-0.856L16.777,297.443z M14.67,297.622c0.721,0,1.24-0.196,1.563-0.587
		s0.481-1.023,0.481-1.895v-0.223c0-0.986-0.16-1.689-0.488-2.111c-0.327-0.421-0.854-0.631-1.571-0.631
		c-0.617,0-1.09,0.24-1.418,0.721c-0.328,0.479-0.491,1.158-0.491,2.035c0,0.889,0.161,1.56,0.487,2.012
		C13.561,297.395,14.038,297.622,14.67,297.622z"/>
	<path fill="#444444" d="M22.947,298.504c-1.028,0-1.84-0.313-2.438-0.939c-0.596-0.625-0.893-1.496-0.893-2.608
		c0-1.122,0.271-2.013,0.825-2.672c0.555-0.66,1.297-0.99,2.229-0.99c0.871,0,1.562,0.287,2.068,0.86
		c0.508,0.572,0.762,1.33,0.762,2.269v0.667h-4.791c0.021,0.816,0.229,1.438,0.617,1.86c0.392,0.423,0.938,0.635,1.649,0.635
		c0.75,0,1.49-0.157,2.227-0.47v0.938c-0.373,0.161-0.729,0.276-1.061,0.347C23.816,298.469,23.415,298.504,22.947,298.504z
		 M22.66,292.175c-0.561,0-1.005,0.183-1.336,0.546c-0.332,0.364-0.527,0.868-0.587,1.512h3.637c0-0.666-0.147-1.174-0.442-1.527
		C23.635,292.352,23.211,292.175,22.66,292.175z"/>
	<path fill="#444444" d="M30.538,291.307c0.914,0,1.624,0.312,2.13,0.937c0.507,0.624,0.759,1.507,0.759,2.649
		c0,1.144-0.255,2.03-0.766,2.664c-0.51,0.633-1.219,0.948-2.123,0.948c-0.452,0-0.865-0.083-1.24-0.251
		c-0.374-0.167-0.688-0.424-0.942-0.771h-0.075l-0.222,0.895h-0.757V288.5h1.054v2.398c0,0.539-0.017,1.021-0.051,1.447h0.051
		C28.848,291.652,29.573,291.307,30.538,291.307z M30.387,292.188c-0.721,0-1.235,0.207-1.557,0.619
		c-0.314,0.413-0.477,1.108-0.477,2.086c0,0.977,0.162,1.676,0.486,2.098c0.324,0.421,0.851,0.631,1.566,0.631
		c0.646,0,1.13-0.236,1.443-0.708c0.316-0.472,0.479-1.15,0.479-2.035c0-0.905-0.157-1.581-0.479-2.024
		C31.539,292.409,31.051,292.188,30.387,292.188z"/>
	<path fill="#444444" d="M39.546,298.377l-0.21-0.99h-0.052c-0.349,0.436-0.691,0.731-1.037,0.887
		c-0.346,0.153-0.774,0.23-1.292,0.23c-0.688,0-1.229-0.178-1.621-0.533c-0.394-0.354-0.588-0.861-0.588-1.517
		c0-1.405,1.124-2.142,3.37-2.209l1.183-0.038v-0.432c0-0.547-0.117-0.949-0.354-1.209c-0.233-0.26-0.608-0.391-1.127-0.391
		c-0.58,0-1.234,0.178-1.968,0.533l-0.323-0.807c0.344-0.186,0.719-0.332,1.127-0.438c0.407-0.105,0.817-0.158,1.229-0.158
		c0.829,0,1.443,0.184,1.844,0.551c0.4,0.369,0.604,0.959,0.604,1.771v4.748H39.546z M37.165,297.634c0.654,0,1.172-0.18,1.546-0.54
		c0.375-0.359,0.562-0.863,0.562-1.511v-0.628l-1.059,0.044c-0.839,0.03-1.438,0.16-1.813,0.392
		c-0.369,0.229-0.558,0.588-0.558,1.075c0,0.382,0.113,0.671,0.347,0.87C36.427,297.535,36.75,297.634,37.165,297.634z"/>
	<path fill="#444444" d="M45.672,291.293c0.309,0,0.586,0.025,0.832,0.076l-0.146,0.979c-0.287-0.063-0.541-0.096-0.763-0.096
		c-0.563,0-1.044,0.229-1.442,0.686c-0.396,0.457-0.602,1.026-0.602,1.709v3.73h-1.055v-6.957h0.869l0.121,1.289h0.051
		c0.259-0.453,0.568-0.803,0.935-1.047C44.836,291.416,45.236,291.293,45.672,291.293z"/>
	<path fill="#444444" d="M51.502,298.377v-9.279h1.079v8.303h4.095v0.977H51.502z"/>
	<path fill="#444444" d="M62.368,298.377l-0.21-0.99h-0.051c-0.351,0.436-0.692,0.731-1.037,0.887
		c-0.349,0.153-0.774,0.23-1.292,0.23c-0.688,0-1.229-0.178-1.622-0.533c-0.396-0.354-0.587-0.861-0.587-1.517
		c0-1.405,1.124-2.142,3.37-2.209l1.182-0.038v-0.432c0-0.547-0.117-0.949-0.354-1.209c-0.231-0.26-0.606-0.391-1.127-0.391
		c-0.58,0-1.231,0.178-1.968,0.533l-0.324-0.807c0.348-0.186,0.723-0.332,1.127-0.438c0.408-0.105,0.818-0.158,1.229-0.158
		c0.829,0,1.444,0.184,1.845,0.551c0.399,0.369,0.604,0.959,0.604,1.771v4.748H62.368z M59.989,297.634
		c0.651,0,1.171-0.18,1.545-0.54c0.375-0.359,0.563-0.863,0.563-1.511v-0.628l-1.056,0.044c-0.838,0.03-1.44,0.16-1.812,0.392
		c-0.366,0.229-0.556,0.588-0.556,1.075c0,0.382,0.114,0.671,0.346,0.87C59.249,297.535,59.573,297.634,59.989,297.634z"/>
	<path fill="#444444" d="M64.217,291.42h1.13l1.522,3.967c0.334,0.906,0.542,1.561,0.622,1.961h0.052
		c0.055-0.216,0.17-0.585,0.346-1.106c0.18-0.523,0.75-2.13,1.728-4.821h1.13l-2.988,7.922c-0.297,0.783-0.644,1.338-1.038,1.666
		c-0.396,0.328-0.882,0.492-1.457,0.492c-0.318,0-0.64-0.036-0.952-0.107v-0.845c0.232,0.052,0.493,0.076,0.781,0.076
		c0.724,0,1.238-0.406,1.549-1.22l0.391-0.989L64.217,291.42z"/>
	<path fill="#444444" d="M77.877,294.893c0,1.133-0.286,2.02-0.856,2.656c-0.568,0.637-1.357,0.955-2.364,0.955
		c-0.622,0-1.179-0.146-1.657-0.438c-0.481-0.293-0.854-0.711-1.116-1.258c-0.263-0.546-0.394-1.185-0.394-1.916
		c0-1.135,0.279-2.019,0.851-2.65c0.566-0.633,1.354-0.949,2.36-0.949c0.975,0,1.747,0.324,2.316,0.971
		C77.59,292.911,77.877,293.788,77.877,294.893z M72.576,294.893c0,0.889,0.179,1.565,0.533,2.03s0.878,0.698,1.563,0.698
		c0.688,0,1.214-0.232,1.57-0.695c0.354-0.464,0.536-1.142,0.536-2.035c0-0.884-0.182-1.556-0.536-2.015
		c-0.356-0.459-0.886-0.688-1.584-0.688c-0.688,0-1.21,0.227-1.562,0.679C72.749,293.318,72.576,293.995,72.576,294.893z"/>
	<path fill="#444444" d="M80.714,291.42v4.514c0,0.566,0.129,0.989,0.387,1.27c0.263,0.279,0.663,0.419,1.214,0.419
		c0.729,0,1.263-0.199,1.6-0.597c0.336-0.398,0.506-1.047,0.506-1.949v-3.656h1.053v6.957h-0.87l-0.148-0.934h-0.061
		c-0.217,0.344-0.516,0.605-0.896,0.787c-0.38,0.183-0.819,0.273-1.312,0.273c-0.847,0-1.479-0.201-1.897-0.604
		c-0.418-0.401-0.632-1.045-0.632-1.93v-4.551H80.714z"/>
	<path fill="#444444" d="M89.949,297.634c0.188,0,0.366-0.014,0.54-0.042c0.173-0.027,0.312-0.056,0.412-0.085v0.806
		c-0.114,0.056-0.282,0.102-0.509,0.138c-0.222,0.036-0.422,0.054-0.601,0.054c-1.346,0-2.019-0.709-2.019-2.126v-4.14h-0.996
		v-0.508l0.996-0.438l0.44-1.484h0.608v1.611h2.02v0.818h-2.02v4.095c0,0.419,0.101,0.741,0.298,0.965
		C89.329,297.521,89.604,297.634,89.949,297.634z"/>
	<path fill="#444444" d="M96.78,296.479c0,0.647-0.242,1.147-0.729,1.498c-0.479,0.352-1.159,0.527-2.027,0.527
		c-0.926,0-1.646-0.146-2.158-0.438v-0.979c0.335,0.169,0.689,0.303,1.076,0.4c0.383,0.097,0.752,0.146,1.104,0.146
		c0.551,0,0.978-0.088,1.271-0.263c0.297-0.176,0.441-0.443,0.441-0.803c0-0.271-0.118-0.502-0.354-0.695
		c-0.234-0.193-0.692-0.42-1.374-0.684c-0.647-0.24-1.107-0.451-1.381-0.631c-0.272-0.181-0.479-0.385-0.609-0.613
		c-0.134-0.229-0.199-0.5-0.199-0.818c0-0.566,0.229-1.016,0.691-1.342c0.461-0.328,1.094-0.492,1.896-0.492
		c0.749,0,1.48,0.152,2.195,0.457l-0.375,0.857c-0.696-0.289-1.329-0.433-1.896-0.433c-0.499,0-0.878,0.078-1.133,0.235
		c-0.254,0.156-0.381,0.373-0.381,0.646c0,0.187,0.048,0.346,0.146,0.477c0.096,0.131,0.249,0.256,0.461,0.375
		c0.211,0.119,0.616,0.289,1.219,0.514c0.824,0.301,1.383,0.604,1.673,0.908C96.634,295.635,96.78,296.018,96.78,296.479z"/>
</g>
<rect id="sidebar-a_10_" x="0.502" y="309.377" opacity="0.2" enable-background="new    " width="11.224" height="43"/>
<rect id="sidebar-b_5_" x="17.962" y="309.377" opacity="0.2" enable-background="new    " width="11.224" height="43"/>
<rect id="content_12_" x="35.422" y="309.377" opacity="0.05" enable-background="new    " width="49.884" height="43"/>
<rect id="sidebar-a_9_" x="177.593" y="309.377" opacity="0.2" enable-background="new    " width="11.224" height="43"/>
<rect id="sidebar-b_4_" x="195.052" y="309.377" opacity="0.2" enable-background="new    " width="11.224" height="43"/>
<rect id="content_11_" x="122.719" y="309.377" opacity="0.05" enable-background="new    " width="48.638" height="43"/>
<rect id="sidebar-a_8_" x="238.701" y="309.377" opacity="0.2" enable-background="new    " width="11.224" height="43"/>
<rect id="sidebar-b_3_" x="313.529" y="309.377" opacity="0.2" enable-background="new    " width="11.224" height="43"/>
<rect id="content_10_" x="256.161" y="309.377" opacity="0.05" enable-background="new    " width="51.131" height="43"/>
<rect id="sidebar-a_7_" x="0.502" y="372.377" opacity="0.2" enable-background="new    " width="11.224" height="43"/>
<rect id="content_9_" x="17.962" y="372.377" opacity="0.05" enable-background="new    " width="66.097" height="43"/>
<rect id="sidebar-a_6_" x="195.052" y="372.377" opacity="0.2" enable-background="new    " width="11.224" height="43"/>
<rect id="content_8_" x="122.719" y="372.377" opacity="0.05" enable-background="new    " width="66.097" height="43"/>
<rect id="content_7_" x="239.948" y="372.377" opacity="0.05" enable-background="new    " width="84.804" height="43"/>
<g>
	<path fill="#444444" d="M11.458,469.447c0,0.65-0.222,1.15-0.665,1.501c-0.443,0.35-1.078,0.524-1.904,0.524H8.133V474H7.385
		v-6.425h1.666C10.656,467.575,11.458,468.199,11.458,469.447z M8.133,470.832h0.672c0.662,0,1.142-0.107,1.438-0.32
		c0.295-0.215,0.442-0.558,0.442-1.029c0-0.424-0.14-0.739-0.418-0.947c-0.277-0.208-0.711-0.313-1.301-0.313H8.132L8.133,470.832
		L8.133,470.832z"/>
	<path fill="#444444" d="M16.842,474l-0.801-2.043h-2.574L12.676,474H11.92l2.539-6.451h0.629L17.615,474H16.842z M15.809,471.284
		l-0.746-1.991c-0.098-0.251-0.196-0.561-0.299-0.927c-0.064,0.28-0.156,0.591-0.276,0.927l-0.757,1.991H15.809z"/>
	<path fill="#444444" d="M19.245,471.328V474h-0.748v-6.425h1.764c0.788,0,1.37,0.151,1.747,0.452
		c0.376,0.303,0.563,0.756,0.563,1.363c0,0.85-0.432,1.424-1.292,1.723L23.025,474H22.14l-1.557-2.672H19.245z M19.245,470.688
		h1.022c0.527,0,0.914-0.104,1.16-0.313c0.246-0.209,0.369-0.522,0.369-0.94c0-0.427-0.125-0.73-0.376-0.918
		c-0.25-0.188-0.652-0.281-1.206-0.281h-0.972L19.245,470.688L19.245,470.688z"/>
	<path fill="#444444" d="M28.102,474l-0.8-2.043h-2.575L23.936,474H23.18l2.54-6.451h0.628L28.874,474H28.102z M27.068,471.284
		l-0.746-1.991c-0.099-0.251-0.197-0.561-0.299-0.927c-0.065,0.28-0.157,0.591-0.277,0.927l-0.756,1.991H27.068z"/>
	<path fill="#444444" d="M29.758,474v-6.425h0.748v5.748h2.834V474H29.758z"/>
	<path fill="#444444" d="M38.011,474h-3.582v-6.425h3.582v0.663h-2.834v2.07h2.662v0.657h-2.662v2.364h2.834V474z"/>
	<path fill="#444444" d="M39.434,474v-6.425h0.748v5.748h2.834V474H39.434z"/>
	<path fill="#444444" d="M44.106,474v-6.425h0.748v5.748h2.834V474H44.106z"/>
	<path fill="#444444" d="M11.011,515.091c0,0.565-0.205,1.007-0.615,1.322c-0.409,0.315-0.967,0.476-1.67,0.476
		c-0.762,0-1.348-0.099-1.758-0.296v-0.721c0.265,0.112,0.552,0.2,0.861,0.265c0.311,0.064,0.617,0.098,0.923,0.098
		c0.497,0,0.872-0.096,1.125-0.283c0.252-0.188,0.378-0.451,0.378-0.788c0-0.224-0.046-0.405-0.135-0.548
		c-0.09-0.143-0.238-0.272-0.447-0.395c-0.21-0.119-0.528-0.257-0.956-0.408c-0.599-0.215-1.023-0.467-1.281-0.76
		c-0.256-0.294-0.385-0.677-0.385-1.146c0-0.495,0.188-0.891,0.559-1.184c0.373-0.293,0.864-0.438,1.479-0.438
		c0.639,0,1.227,0.116,1.762,0.353l-0.231,0.649c-0.529-0.224-1.046-0.334-1.547-0.334c-0.396,0-0.705,0.086-0.929,0.256
		c-0.223,0.17-0.333,0.405-0.333,0.707c0,0.224,0.04,0.403,0.122,0.547s0.222,0.271,0.416,0.394c0.193,0.117,0.492,0.25,0.896,0.394
		c0.673,0.24,1.138,0.498,1.392,0.772C10.884,514.294,11.011,514.65,11.011,515.091z"/>
	<path fill="#444444" d="M14.303,516.8h-0.748v-5.762h-2.034v-0.663h4.816v0.663h-2.034V516.8L14.303,516.8z"/>
	<path fill="#444444" d="M21.342,516.8l-0.801-2.043h-2.574l-0.791,2.043H16.42l2.539-6.45h0.629l2.526,6.45H21.342z
		 M20.309,514.084l-0.746-1.991c-0.098-0.251-0.196-0.561-0.299-0.927c-0.064,0.281-0.156,0.591-0.276,0.927l-0.757,1.991H20.309z"
		/>
	<path fill="#444444" d="M25.749,510.95c-0.707,0-1.264,0.235-1.673,0.706c-0.408,0.47-0.611,1.113-0.611,1.931
		c0,0.843,0.195,1.491,0.591,1.949c0.395,0.459,0.956,0.688,1.686,0.688c0.448,0,0.96-0.08,1.534-0.242v0.656
		c-0.445,0.166-0.995,0.25-1.646,0.25c-0.947,0-1.678-0.287-2.191-0.861s-0.771-1.391-0.771-2.447c0-0.662,0.124-1.242,0.372-1.74
		c0.247-0.498,0.604-0.882,1.072-1.152c0.467-0.269,1.017-0.402,1.648-0.402c0.674,0,1.263,0.123,1.769,0.367l-0.315,0.645
		C26.722,511.064,26.235,510.95,25.749,510.95z"/>
	<path fill="#444444" d="M33.316,516.8h-0.88l-2.342-3.114l-0.672,0.599v2.519h-0.748v-6.426h0.748v3.188l2.912-3.188h0.885
		l-2.584,2.79L33.316,516.8z"/>
	<path fill="#444444" d="M37.781,516.8h-3.582v-6.425h3.582v0.663h-2.834v2.069h2.662v0.66h-2.662v2.362h2.834V516.8z"/>
	<path fill="#444444" d="M44.333,513.525c0,1.062-0.287,1.871-0.862,2.433c-0.576,0.562-1.403,0.842-2.484,0.842h-1.78v-6.425h1.97
		c0.999,0,1.774,0.275,2.33,0.831C44.057,511.759,44.333,512.532,44.333,513.525z M43.542,513.552c0-0.837-0.21-1.469-0.631-1.894
		c-0.42-0.426-1.045-0.639-1.874-0.639h-1.085v5.133h0.909c0.891,0,1.561-0.219,2.009-0.655
		C43.318,515.059,43.542,514.411,43.542,513.552z"/>
	<path fill="#444444" d="M12.514,556.326c0,1.061-0.288,1.871-0.862,2.432c-0.576,0.563-1.404,0.842-2.485,0.842H7.387v-6.425h1.969
		c0.999,0,1.775,0.276,2.33,0.831C12.236,554.559,12.514,555.332,12.514,556.326z M11.723,556.352c0-0.836-0.21-1.469-0.631-1.894
		c-0.42-0.425-1.045-0.638-1.874-0.638H8.133v5.133h0.908c0.892,0,1.561-0.219,2.01-0.656
		C11.497,557.857,11.723,557.211,11.723,556.352z"/>
	<path fill="#444444" d="M19.523,556.379c0,1.027-0.261,1.836-0.78,2.426c-0.521,0.588-1.243,0.883-2.168,0.883
		c-0.946,0-1.677-0.289-2.19-0.867c-0.515-0.577-0.771-1.396-0.771-2.449c0-1.045,0.258-1.855,0.772-2.434
		c0.517-0.576,1.248-0.861,2.196-0.861c0.925,0,1.646,0.293,2.162,0.879C19.264,554.539,19.523,555.348,19.523,556.379z
		 M14.402,556.379c0,0.869,0.187,1.529,0.557,1.979s0.908,0.677,1.615,0.677c0.711,0,1.249-0.226,1.611-0.675
		c0.363-0.446,0.545-1.106,0.545-1.979c0-0.862-0.181-1.521-0.543-1.967c-0.36-0.447-0.896-0.67-1.605-0.67
		c-0.711,0-1.253,0.225-1.623,0.674S14.402,555.521,14.402,556.379z"/>
	<path fill="#444444" d="M25.807,553.175v4.157c0,0.732-0.221,1.309-0.663,1.727c-0.441,0.42-1.05,0.629-1.822,0.629
		s-1.372-0.211-1.796-0.633s-0.636-1.002-0.636-1.74v-4.14h0.747v4.192c0,0.535,0.146,0.947,0.438,1.234s0.725,0.432,1.292,0.432
		c0.542,0,0.959-0.145,1.253-0.434c0.292-0.289,0.438-0.703,0.438-1.242v-4.185L25.807,553.175L25.807,553.175z"/>
	<path fill="#444444" d="M27.508,553.175h1.814c0.854,0,1.469,0.128,1.852,0.382c0.38,0.256,0.569,0.658,0.569,1.209
		c0,0.381-0.104,0.695-0.317,0.942c-0.212,0.248-0.521,0.408-0.931,0.481v0.043c0.978,0.168,1.465,0.681,1.465,1.539
		c0,0.572-0.194,1.021-0.582,1.345c-0.39,0.321-0.933,0.483-1.628,0.483h-2.242V553.175L27.508,553.175z M28.256,555.926h1.229
		c0.526,0,0.905-0.083,1.138-0.248c0.23-0.166,0.348-0.443,0.348-0.838c0-0.359-0.129-0.619-0.388-0.779
		c-0.258-0.16-0.668-0.24-1.229-0.24h-1.098V555.926z M28.256,556.559v2.404h1.34c0.52,0,0.909-0.102,1.171-0.302
		c0.264-0.2,0.395-0.515,0.395-0.942c0-0.398-0.134-0.691-0.401-0.879c-0.269-0.188-0.677-0.281-1.225-0.281H28.256z"/>
	<path fill="#444444" d="M33.339,559.6v-6.425h0.748v5.748h2.834v0.677H33.339z"/>
	<path fill="#444444" d="M41.592,559.6H38.01v-6.425h3.582v0.663h-2.834v2.07h2.662v0.658h-2.662v2.365h2.834V559.6z"/>
	<path fill="#444444" d="M48.145,556.326c0,1.061-0.287,1.871-0.862,2.432c-0.576,0.563-1.403,0.842-2.484,0.842h-1.78v-6.425h1.97
		c0.999,0,1.774,0.276,2.33,0.831C47.866,554.559,48.145,555.332,48.145,556.326z M47.354,556.352c0-0.836-0.21-1.469-0.631-1.894
		c-0.42-0.425-1.045-0.638-1.874-0.638h-1.085v5.133h0.909c0.891,0,1.561-0.219,2.009-0.656
		C47.129,557.857,47.354,557.211,47.354,556.352z"/>
</g>
<g>
	<path fill="#444444" d="M134.593,183.75l-2.18-5.695h-0.035c0.041,0.451,0.063,0.987,0.063,1.608v4.087h-0.69v-6.425h1.125
		l2.035,5.3h0.035l2.052-5.3h1.116v6.425h-0.747v-4.141c0-0.475,0.021-0.989,0.062-1.547h-0.035l-2.196,5.688H134.593z"/>
	<path fill="#444444" d="M143.913,183.75l-0.8-2.043h-2.575l-0.791,2.043h-0.756l2.54-6.451h0.628l2.526,6.451H143.913z
		 M142.881,181.034l-0.747-1.991c-0.097-0.251-0.196-0.561-0.299-0.927c-0.064,0.28-0.157,0.591-0.277,0.927l-0.756,1.991H142.881z"
		/>
	<path fill="#444444" d="M145.57,183.75v-6.425h0.747v6.425H145.57z"/>
	<path fill="#444444" d="M153.097,183.75h-0.853l-3.511-5.393h-0.035c0.047,0.633,0.069,1.213,0.069,1.74v3.651h-0.689v-6.425h0.844
		l3.502,5.369h0.035c-0.006-0.078-0.019-0.332-0.04-0.762c-0.021-0.43-0.028-0.736-0.021-0.922v-3.688h0.698L153.097,183.75
		L153.097,183.75z"/>
	<path fill="#444444" d="M154.349,181.672v-0.668h2.158v0.668H154.349z"/>
	<path fill="#444444" d="M157.76,177.325h1.815c0.853,0,1.469,0.128,1.85,0.382c0.381,0.256,0.571,0.658,0.571,1.209
		c0,0.381-0.106,0.695-0.319,0.941c-0.212,0.248-0.521,0.408-0.929,0.481v0.044c0.976,0.167,1.463,0.68,1.463,1.538
		c0,0.574-0.194,1.022-0.582,1.345c-0.389,0.322-0.931,0.483-1.628,0.483h-2.241V177.325z M158.508,180.076h1.23
		c0.526,0,0.906-0.083,1.138-0.248c0.231-0.166,0.347-0.444,0.347-0.838c0-0.359-0.129-0.62-0.387-0.779
		c-0.258-0.16-0.668-0.24-1.229-0.24h-1.1L158.508,180.076L158.508,180.076z M158.508,180.709v2.404h1.34
		c0.52,0,0.909-0.102,1.171-0.303c0.263-0.199,0.395-0.515,0.395-0.941c0-0.398-0.134-0.691-0.402-0.879
		c-0.268-0.188-0.676-0.281-1.224-0.281H158.508z"/>
	<path fill="#444444" d="M169.169,180.529c0,1.027-0.26,1.836-0.78,2.426c-0.52,0.588-1.243,0.883-2.168,0.883
		c-0.945,0-1.676-0.289-2.19-0.867s-0.771-1.396-0.771-2.451c0-1.045,0.258-1.855,0.773-2.432s1.248-0.863,2.196-0.863
		c0.924,0,1.645,0.293,2.162,0.879C168.909,178.689,169.169,179.498,169.169,180.529z M164.049,180.529
		c0,0.869,0.186,1.529,0.556,1.979s0.909,0.676,1.615,0.676c0.712,0,1.25-0.226,1.613-0.674c0.363-0.447,0.545-1.107,0.545-1.98
		c0-0.864-0.181-1.521-0.543-1.967c-0.362-0.447-0.897-0.67-1.606-0.67c-0.712,0-1.253,0.225-1.624,0.674
		C164.234,179.018,164.049,179.671,164.049,180.529z"/>
	<path fill="#444444" d="M172.579,183.75h-0.747v-5.762h-2.035v-0.663h4.816v0.663h-2.035L172.579,183.75L172.579,183.75z"/>
	<path fill="#444444" d="M177.557,183.75h-0.747v-5.762h-2.034v-0.663h4.815v0.663h-2.035L177.557,183.75L177.557,183.75z"/>
	<path fill="#444444" d="M186.135,180.529c0,1.027-0.26,1.836-0.779,2.426c-0.521,0.588-1.243,0.883-2.169,0.883
		c-0.945,0-1.676-0.289-2.19-0.867c-0.514-0.578-0.771-1.396-0.771-2.451c0-1.045,0.259-1.855,0.773-2.432
		c0.516-0.576,1.248-0.863,2.197-0.863c0.923,0,1.644,0.293,2.162,0.879C185.876,178.689,186.135,179.498,186.135,180.529z
		 M181.015,180.529c0,0.869,0.186,1.529,0.557,1.979c0.37,0.449,0.908,0.676,1.614,0.676c0.713,0,1.25-0.226,1.613-0.674
		c0.363-0.447,0.545-1.107,0.545-1.98c0-0.864-0.181-1.521-0.543-1.967c-0.361-0.447-0.896-0.67-1.605-0.67
		c-0.712,0-1.253,0.225-1.624,0.674C181.201,179.018,181.015,179.671,181.015,180.529z"/>
	<path fill="#444444" d="M190.412,183.75l-2.18-5.695h-0.035c0.041,0.451,0.062,0.987,0.062,1.608v4.087h-0.689v-6.425h1.125
		l2.034,5.3h0.035l2.053-5.3h1.115v6.425h-0.747v-4.141c0-0.475,0.021-0.989,0.063-1.547h-0.035l-2.197,5.688H190.412z"/>
</g>
<g>
	<path fill="#444444" d="M144.647,111.75l-2.18-5.695h-0.035c0.041,0.451,0.063,0.987,0.063,1.608v4.087h-0.69v-6.425h1.125
		l2.035,5.3h0.035l2.052-5.3h1.116v6.425h-0.747v-4.14c0-0.475,0.021-0.99,0.062-1.547h-0.035l-2.196,5.687H144.647z"/>
	<path fill="#444444" d="M153.967,111.75l-0.8-2.043h-2.575l-0.791,2.043h-0.756l2.54-6.451h0.628l2.526,6.451H153.967z
		 M152.935,109.034l-0.747-1.991c-0.097-0.251-0.196-0.561-0.299-0.927c-0.064,0.281-0.157,0.591-0.277,0.927l-0.756,1.991H152.935z
		"/>
	<path fill="#444444" d="M155.624,111.75v-6.425h0.747v6.425H155.624z"/>
	<path fill="#444444" d="M163.152,111.75h-0.853l-3.511-5.393h-0.035c0.047,0.633,0.069,1.213,0.069,1.74v3.652h-0.689v-6.425h0.844
		l3.502,5.37h0.035c-0.006-0.079-0.019-0.333-0.04-0.763c-0.021-0.429-0.028-0.735-0.021-0.921v-3.687h0.698L163.152,111.75
		L163.152,111.75z"/>
	<path fill="#444444" d="M164.404,109.672v-0.668h2.158v0.668H164.404z"/>
	<path fill="#444444" d="M169.792,111.75h-0.747v-5.762h-2.035v-0.663h4.815v0.663h-2.034L169.792,111.75L169.792,111.75z"/>
	<path fill="#444444" d="M178.37,108.529c0,1.027-0.261,1.836-0.78,2.426c-0.521,0.588-1.243,0.883-2.168,0.883
		c-0.946,0-1.676-0.289-2.191-0.868c-0.514-0.578-0.771-1.396-0.771-2.45c0-1.045,0.258-1.856,0.772-2.432
		c0.517-0.576,1.248-0.863,2.197-0.863c0.923,0,1.644,0.293,2.162,0.879C178.11,106.69,178.37,107.498,178.37,108.529z
		 M173.251,108.529c0,0.869,0.185,1.529,0.556,1.979c0.37,0.449,0.909,0.675,1.615,0.675c0.712,0,1.25-0.225,1.613-0.673
		c0.362-0.448,0.545-1.108,0.545-1.981c0-0.864-0.182-1.521-0.543-1.967c-0.362-0.447-0.897-0.67-1.606-0.67
		c-0.712,0-1.253,0.225-1.624,0.674C173.436,107.017,173.251,107.671,173.251,108.529z"/>
	<path fill="#444444" d="M183.877,107.197c0,0.65-0.223,1.15-0.666,1.501c-0.443,0.35-1.079,0.524-1.905,0.524h-0.756v2.527h-0.747
		v-6.425h1.666C183.073,105.325,183.877,105.949,183.877,107.197z M180.55,108.582h0.672c0.662,0,1.141-0.107,1.437-0.321
		c0.297-0.214,0.444-0.557,0.444-1.028c0-0.425-0.139-0.741-0.417-0.949s-0.712-0.312-1.301-0.312h-0.835V108.582L180.55,108.582z"
		/>
</g>
</svg>
