<?xml version="1.0" encoding="utf-8"?>
<!DOCTYPE svg PUBLIC "-//W3C//DTD SVG 1.1//EN" "http://www.w3.org/Graphics/SVG/1.1/DTD/svg11.dtd">
<svg version="1.1" id="Ebene_1" xmlns="http://www.w3.org/2000/svg" xmlns:xlink="http://www.w3.org/1999/xlink" x="0px" y="0px"
	 width="50px" height="19px" viewBox="0 0 50 19" enable-background="new 0 0 50 19" xml:space="preserve">
<g>
	<path fill="#474D53" d="M12.291,6.215c0,0.63-0.274,1.273-0.468,1.865c-0.317,0.964-0.633,1.927-0.95,2.891
		c-0.691,2.104-1.382,4.21-2.073,6.316c-0.244,0.743-0.359,1.325-1.288,1.419c-0.999,0.103-3.391,0.457-3.793-0.771
		c-0.577-1.755-1.153-3.509-1.728-5.262c-0.565-1.718-1.128-3.434-1.693-5.152C0.111,6.951-0.35,5.962,0.473,5.772
		c0.81-0.187,2.723-0.394,3.029,0.604c0.512,1.669,1.022,3.338,1.534,5.007c0.408,1.33,0.903,2.664,1.208,4.021
		c0.452-2.01,1.182-3.984,1.777-5.954c0.301-0.997,0.602-1.994,0.904-2.99c0.126-0.416,0.292-0.637,0.76-0.711
		C10.15,5.676,12.291,5.405,12.291,6.215z"/>
	<path fill="#474D53" d="M17.857,2.171c0,1.172-0.509,1.739-1.672,1.793c-1.309,0.062-2.181-0.278-2.181-1.727
		c0-1.176,0.499-1.752,1.669-1.808C16.982,0.367,17.857,0.724,17.857,2.171z M17.605,18.212c0,0.816-3.348,0.837-3.348-0.021
		c0-0.552,0-1.102,0-1.651c0-2.335,0-4.67,0-7.004c0-0.896,0-1.793,0-2.69c0-0.184,0-0.367,0-0.55c0-0.558,0.833-0.575,1.226-0.593
		c0.454-0.021,1.899-0.172,2.102,0.428c0.048,0.138,0.021,0.325,0.021,0.466c0,0.803,0,1.606,0,2.409
		C17.605,12.074,17.605,15.144,17.605,18.212z"/>
	<path fill="#474D53" d="M32.179,18.212c0,0.8-2.408,0.735-2.755,0.25c-0.248-0.333-0.073-1.186-0.073-1.578
		c-1.588,1.719-3.992,2.767-6.247,1.664c-2.261-1.102-2.84-3.852-2.84-6.166c0-2.242,0.519-4.907,2.534-6.199
		c2.03-1.3,4.427-0.736,6.061,0.894c0-1.871,0-3.741,0-5.613c0-0.278,0-0.558,0-0.837c0-0.634,0.993-0.606,1.427-0.616
		c0.747-0.017,1.896-0.11,1.896,0.854c0,4.093,0,8.187,0,12.278C32.179,14.833,32.179,16.522,32.179,18.212z M28.858,10.205
		c-0.675-0.86-1.573-1.88-2.751-1.88c-1.253,0-1.954,1.055-2.243,2.171c-0.432,1.675-0.408,5.409,1.952,5.61
		c1.162,0.101,2.009-0.692,2.711-1.521c0.396-0.467,0.33-0.662,0.33-1.262C28.858,12.284,28.858,11.245,28.858,10.205z"/>
	<path fill="#474D53" d="M45.637,18.254c0,0.744-1.853,0.523-2.263,0.45c-0.687-0.117-0.498-0.871-0.498-1.405
		c-1.404,1.523-3.519,2.047-5.479,1.431c-1.982-0.622-2.932-2.612-2.483-4.627c0.462-2.078,2.568-2.792,4.433-3.007
		c0.762-0.088,1.526-0.098,2.292-0.098c0.233,0,0.465,0,0.699,0c0.048,0,0.021-0.537,0.021-0.611c0-0.749-0.083-1.629-0.786-2.053
		c-0.817-0.492-2.078-0.367-2.952-0.117c-0.485,0.138-0.951,0.314-1.405,0.528c-0.345,0.164-0.76,0.493-1.154,0.493
		c-0.768,0-0.682-1.731-0.474-2.171c0.335-0.714,1.466-1.014,2.146-1.212c1.046-0.308,2.125-0.426,3.214-0.381
		c1.926,0.082,3.89,0.72,4.463,2.786c0.458,1.658,0.229,3.658,0.229,5.361C45.637,15.166,45.637,16.709,45.637,18.254z
		 M42.356,13.12c-0.879,0-1.793-0.063-2.655,0.121c-0.644,0.136-1.299,0.453-1.53,1.124c-0.226,0.665-0.068,1.49,0.522,1.905
		c0.574,0.404,1.419,0.399,2.055,0.154c0.339-0.131,1.608-0.857,1.608-1.275C42.356,14.474,42.356,13.797,42.356,13.12z"/>
</g>
</svg>
