<?xml version="1.0" encoding="utf-8"?>
<!DOCTYPE svg PUBLIC "-//W3C//DTD SVG 1.1//EN" "http://www.w3.org/Graphics/SVG/1.1/DTD/svg11.dtd">
<svg version="1.1" id="Demo" xmlns="http://www.w3.org/2000/svg" xmlns:xlink="http://www.w3.org/1999/xlink" x="0px" y="0px"
	 width="100px" height="100px" viewBox="0 0 100 100" enable-background="new 0 0 100 100" xml:space="preserve">
<path fill="#EBECEC" d="M97.684,80.499c0,9.49-7.694,17.185-17.185,17.185H19.397c-9.491,0-17.185-7.694-17.185-17.185V19.397
	c0-9.491,7.694-17.185,17.185-17.185h61.102c9.49,0,17.184,7.694,17.184,17.185L97.684,80.499L97.684,80.499z"/>
<g>
	<path fill="#59636B" d="M33.332,50.193c0,3.007-0.789,5.282-2.366,6.821c-1.578,1.543-3.894,2.311-6.95,2.311h-4.291V41.405h4.842
		c2.861,0,5.037,0.748,6.528,2.243C32.586,45.144,33.332,47.325,33.332,50.193z M31.972,50.243c0-2.567-0.652-4.497-1.955-5.792
		c-1.304-1.295-3.218-1.942-5.743-1.942h-3.297v15.714h2.966C29.294,58.222,31.972,55.563,31.972,50.243z"/>
	<path fill="#59636B" d="M42.525,59.57c-1.937,0-3.446-0.597-4.529-1.79c-1.083-1.192-1.624-2.863-1.624-5.014
		c0-2.124,0.524-3.827,1.569-5.104c1.046-1.28,2.456-1.918,4.229-1.918c1.569,0,2.808,0.547,3.715,1.642
		c0.907,1.096,1.361,2.583,1.361,4.462v0.981h-9.6c0.018,1.831,0.444,3.229,1.281,4.191c0.838,0.964,2.038,1.446,3.598,1.446
		c0.76,0,1.429-0.053,2.003-0.159c0.578-0.106,1.307-0.336,2.189-0.687v1.104c-0.751,0.327-1.446,0.55-2.084,0.669
		C43.996,59.512,43.293,59.57,42.525,59.57z M42.17,46.822c-1.283,0-2.313,0.423-3.089,1.269s-1.229,2.065-1.361,3.658h8.237
		c0-1.542-0.335-2.751-1.005-3.622C44.282,47.257,43.354,46.822,42.17,46.822z"/>
	<path fill="#59636B" d="M67.569,59.325v-8.74c0-1.298-0.254-2.246-0.761-2.843c-0.506-0.597-1.283-0.895-2.329-0.895
		c-1.365,0-2.374,0.376-3.029,1.128c-0.653,0.751-0.979,1.933-0.979,3.542v7.809h-1.238v-9.107c0-2.248-1.03-3.371-3.089-3.371
		c-1.397,0-2.415,0.406-3.052,1.219c-0.639,0.813-0.958,2.115-0.958,3.904v7.354h-1.215V46.001h1.006l0.257,1.827h0.073
		c0.369-0.662,0.891-1.175,1.57-1.538c0.677-0.364,1.427-0.545,2.242-0.545c2.1,0,3.448,0.788,4.047,2.366h0.049
		c0.433-0.761,1.015-1.345,1.747-1.753c0.731-0.409,1.563-0.612,2.494-0.612c1.455,0,2.545,0.387,3.272,1.164
		c0.729,0.777,1.094,2.012,1.094,3.703v8.715H67.569z"/>
	<path fill="#59636B" d="M84.104,52.645c0,2.174-0.527,3.87-1.581,5.096c-1.054,1.219-2.509,1.832-4.364,1.832
		c-1.168,0-2.197-0.281-3.089-0.848c-0.892-0.563-1.573-1.371-2.047-2.426c-0.475-1.055-0.711-2.271-0.711-3.652
		c0-2.173,0.527-3.867,1.58-5.081c1.056-1.213,2.502-1.82,4.339-1.82c1.831,0,3.266,0.614,4.309,1.844
		C83.584,48.818,84.104,50.504,84.104,52.645z M73.588,52.645c0,1.832,0.401,3.259,1.209,4.285c0.803,1.024,1.941,1.538,3.413,1.538
		c1.471,0,2.607-0.514,3.412-1.538c0.806-1.026,1.208-2.453,1.208-4.285c0-1.838-0.408-3.265-1.218-4.278
		c-0.814-1.013-1.955-1.52-3.429-1.52c-1.47,0-2.602,0.505-3.399,1.514S73.588,50.798,73.588,52.645z"/>
</g>
</svg>
